# Blender v2.73 (sub 0) OBJ File: 'props and shit.blend'
# www.blender.org
o Cylinder.003_Cylinder.004
v 0.962745 1.608502 -0.399618
v 1.058444 2.115728 -0.464253
v 1.240419 1.556113 -0.282573
v 1.381029 2.054867 -0.328276
v 1.355435 1.534413 0.000000
v 1.514648 2.029656 0.000000
v 1.240419 1.556113 0.282573
v 1.381029 2.054867 0.328276
v 0.962745 1.608502 0.399618
v 1.058444 2.115728 0.464253
v 0.685071 1.660891 0.282573
v 0.735859 2.176591 0.328276
v 0.570054 1.682591 0.000000
v 0.602239 2.201801 0.000000
v 0.685071 1.660891 -0.282573
v 0.735859 2.176591 -0.328276
v 0.962745 1.608502 -0.342794
v 1.200935 1.563563 -0.242392
v 1.299596 1.544948 0.000000
v 1.200935 1.563563 0.242392
v 0.962745 1.608502 0.342794
v 0.724555 1.653441 0.242392
v 0.625894 1.672056 0.000000
v 0.724555 1.653441 -0.242392
v 0.539336 -0.635666 -0.225310
v 0.695892 -0.665203 -0.159318
v 0.760741 -0.677438 0.000000
v 0.695892 -0.665203 0.159318
v 0.539336 -0.635666 0.225310
v 0.382780 -0.606128 0.159318
v 0.317932 -0.593893 0.000000
v 0.382780 -0.606128 -0.159318
v 0.385609 -1.450457 -0.150902
v 0.490463 -1.470240 -0.106704
v 0.533895 -1.478434 0.000000
v 0.490463 -1.470240 0.106704
v 0.385609 -1.450457 0.150902
v 0.280756 -1.430674 0.106704
v 0.237323 -1.422480 0.000000
v 0.280756 -1.430674 -0.106704
v 0.358981 -1.591592 0.000000
v 0.343164 -0.660833 0.000000
v 0.397303 -0.671048 -0.133011
v 0.658713 -0.720368 -0.133011
v 0.712853 -0.730582 0.000000
v 0.397303 -0.671048 0.133011
v 0.528008 -0.695708 -0.188106
v 0.528008 -0.695708 0.188106
v 0.658713 -0.720368 0.133011
v 1.087805 2.271352 -0.430226
v 1.386746 2.214951 -0.304215
v 1.510572 2.191588 0.000000
v 1.386746 2.214951 0.304215
v 1.087805 2.271352 0.430226
v 0.788864 2.327753 0.304215
v 0.665039 2.351116 0.000000
v 0.788864 2.327753 -0.304215
v 1.087805 2.271352 0.000000
v 0.048629 0.613099 0.161419
v 0.048629 0.613099 -0.161420
v 1.010658 1.505021 -0.231453
v 1.010678 1.505021 0.231452
v 0.123973 0.652298 0.161419
v 0.123975 0.652298 -0.161420
v 1.565163 0.985766 -0.231453
v 1.479641 0.985766 0.231452
v 1.565166 0.985766 0.231452
v 1.479646 0.985766 -0.231453
v 1.013323 1.437592 -0.231453
v 1.013291 1.437592 0.231452
v 0.689820 0.145229 0.161419
v 0.689821 0.145229 -0.161420
v 0.705897 0.212783 0.161419
v 0.705898 0.212783 -0.161420
v 1.355532 0.576418 0.161419
v 1.355532 0.576418 -0.161420
v 1.318529 0.616871 0.161419
v 1.318529 0.616872 -0.161420
v 0.149484 1.128118 0.197047
v 0.214312 1.080608 -0.197048
v 0.214303 1.080608 0.197047
v 0.149479 1.128118 -0.197048
v 0.531752 1.406876 0.219325
v 0.498998 1.461977 -0.219326
v 0.499013 1.461977 0.219325
v 0.531777 1.406876 -0.219326
v 1.564560 0.556849 -0.216915
v 1.482603 0.580450 0.216914
v 1.564562 0.556848 0.216914
v 1.482608 0.580448 -0.216915
v 1.319133 1.317839 -0.231453
v 1.390063 1.360983 0.231452
v 1.319116 1.317846 0.231452
v 1.390052 1.360987 -0.231453
v 0.121057 -1.049946 -0.084784
v 0.048627 -1.060438 0.084783
v 0.121059 -1.049946 0.084783
v 0.048632 -1.060438 -0.084784
v 0.147113 -1.483305 -0.066726
v 0.147111 -1.483305 0.066725
v 0.486229 -1.685687 0.056980
v 0.486228 -1.685687 -0.056981
v 0.505884 -1.640716 0.056980
v 0.204125 -1.450452 -0.066726
v 0.505881 -1.640716 -0.056981
v 0.204128 -1.450452 0.066725
v 0.625957 -1.659511 -0.043676
v 0.625961 -1.659511 0.043675
v 0.603231 -1.626204 -0.043676
v 0.603234 -1.626204 0.043675
v 0.735496 -1.520727 -0.026709
v 0.735498 -1.520725 0.026708
v 0.695647 -1.510224 -0.026709
v 0.695650 -1.510222 0.026708
v 0.755017 -0.167161 0.162968
v 0.755014 -0.167161 -0.162970
v 0.674061 -0.151028 -0.162970
v 0.674056 -0.151028 0.162968
v 0.000001 -1.762866 0.123075
v 0.000001 -1.762866 -0.123076
v 0.097258 -1.762866 -0.123076
v 0.097258 -1.762866 0.123075
v 0.000001 1.762866 0.164660
v 0.000001 1.762866 -0.164661
v 0.097258 1.762866 -0.164661
v 0.097258 1.762866 0.164660
v 0.000001 0.697130 0.267377
v 0.000001 0.697130 -0.267378
v 0.097258 0.697130 -0.267378
v 0.097258 0.697130 0.267377
v 0.000001 0.444722 -0.197714
v 0.097258 0.444722 -0.197714
v 0.097258 0.444722 0.197713
v 0.000001 0.444722 0.197713
v 0.000001 1.536586 0.267377
v 0.000001 1.536586 -0.267378
v 0.097258 1.536586 -0.267378
v 0.097258 1.536586 0.267377
vt 0.411614 0.095741
vt 0.379813 0.095741
vt 0.379038 0.101368
vt 0.409790 0.101368
vt 0.224213 0.095741
vt 0.195661 0.095741
vt 0.199778 0.101368
vt 0.226211 0.101368
vt 0.316243 0.095741
vt 0.284685 0.095741
vt 0.285478 0.101368
vt 0.316560 0.101368
vt 0.348053 0.095741
vt 0.347870 0.101368
vt 0.253786 0.095741
vt 0.255081 0.101368
vt 0.442666 0.095741
vt 0.437521 0.101368
vt 0.234964 0.882742
vt 0.234964 0.867131
vt 0.253809 0.874937
vt 0.261615 0.856091
vt 0.272655 0.867131
vt 0.246003 0.893782
vt 0.261615 0.893782
vt 0.246003 0.856091
vt 0.272655 0.882742
vt 0.184950 0.631140
vt 0.184950 0.593993
vt 0.229790 0.612566
vt 0.274631 0.631140
vt 0.248364 0.657407
vt 0.211217 0.567726
vt 0.211217 0.657407
vt 0.248364 0.567726
vt 0.274631 0.593993
vt 0.250401 0.941393
vt 0.301527 0.941006
vt 0.298141 0.933207
vt 0.256764 0.933091
vt 0.277481 0.766052
vt 0.218636 0.846813
vt 0.224814 0.849902
vt 0.278639 0.774724
vt 0.366923 0.800161
vt 0.374016 0.792150
vt 0.385542 0.857409
vt 0.375763 0.854780
vt 0.359670 0.912608
vt 0.353311 0.907630
vt 0.579370 0.029195
vt 0.538696 0.029018
vt 0.538666 0.035925
vt 0.579340 0.036102
vt 0.212723 0.905313
vt 0.222767 0.901413
vt 0.203922 0.853916
vt 0.193220 0.854884
vt 0.265478 0.730927
vt 0.255234 0.732725
vt 0.289355 0.599750
vt 0.297388 0.595224
vt 0.484916 0.013593
vt 0.478186 0.013592
vt 0.478186 0.008400
vt 0.484916 0.008401
vt 0.202185 0.550998
vt 0.206347 0.553910
vt 0.200551 0.571800
vt 0.195385 0.572317
vt 0.261362 0.556424
vt 0.266569 0.549973
vt 0.217244 0.547760
vt 0.217513 0.541583
vt 0.175072 0.618790
vt 0.148850 0.621275
vt 0.130578 0.033168
vt 0.155487 0.033168
vt 0.041757 0.621275
vt 0.067508 0.033168
vt 0.016570 0.618790
vt 0.041674 0.033168
vt 0.067626 0.008489
vt 0.130696 0.008489
vt 0.048649 0.938329
vt 0.133436 0.938329
vt 0.133786 0.963369
vt 0.048999 0.963369
vt 0.030428 0.881410
vt 0.006495 0.885413
vt 0.006495 0.685130
vt 0.029478 0.686831
vt 0.152454 0.881410
vt 0.158678 0.686831
vt 0.175006 0.885413
vt 0.183396 0.685130
vt 0.155811 0.945691
vt 0.022940 0.945691
vt 0.312698 0.044054
vt 0.276658 0.044054
vt 0.241265 0.044054
vt 0.206403 0.044054
vt 0.170965 0.044054
vt 0.463771 0.044054
vt 0.423254 0.044054
vt 0.385969 0.044054
vt 0.349191 0.044054
vt 0.350102 0.026269
vt 0.312039 0.026269
vt 0.237664 0.026269
vt 0.201857 0.026269
vt 0.426727 0.026269
vt 0.388417 0.026269
vt 0.166840 0.026269
vt 0.274472 0.026269
vt 0.465848 0.026269
vt 0.319229 0.344733
vt 0.335496 0.344733
vt 0.351016 0.351825
vt 0.335235 0.351825
vt 0.331598 0.433199
vt 0.343098 0.433199
vt 0.271104 0.344733
vt 0.286934 0.344733
vt 0.351783 0.344733
vt 0.303016 0.344733
vt 0.368192 0.344733
vt 0.384908 0.344733
vt 0.254809 0.344733
vt 0.303617 0.351825
vt 0.287982 0.351825
vt 0.297018 0.433199
vt 0.308522 0.433199
vt 0.366633 0.351825
vt 0.354520 0.433199
vt 0.319406 0.351825
vt 0.320061 0.433199
vt 0.381431 0.351825
vt 0.365814 0.433199
vt 0.272731 0.351825
vt 0.258127 0.351825
vt 0.273696 0.433199
vt 0.285586 0.433199
vt 0.586421 0.435154
vt 0.528101 0.434901
vt 0.527897 0.481370
vt 0.586218 0.481624
vt 0.585342 0.332977
vt 0.530077 0.332737
vt 0.528282 0.393523
vt 0.586603 0.393775
vt 0.529506 0.532445
vt 0.584164 0.532683
vt 0.537863 0.220266
vt 0.578537 0.220443
vt 0.578938 0.128565
vt 0.538264 0.128388
vt 0.582786 0.275612
vt 0.533134 0.275396
vt 0.576768 0.670022
vt 0.535704 0.669843
vt 0.544948 0.808942
vt 0.566311 0.809035
vt 0.546983 0.863654
vt 0.563796 0.863728
vt 0.560595 0.931381
vt 0.549590 0.931333
vt 0.551629 0.953617
vt 0.558359 0.953647
vt 0.547992 0.913414
vt 0.562350 0.913478
vt 0.452394 0.521128
vt 0.510715 0.521129
vt 0.510716 0.572258
vt 0.452394 0.572256
vt 0.510715 0.468960
vt 0.452393 0.468960
vt 0.456731 0.697847
vt 0.506382 0.697847
vt 0.501894 0.763967
vt 0.461219 0.763967
vt 0.501894 0.863970
vt 0.461219 0.863970
vt 0.501894 0.963900
vt 0.461219 0.963900
vt 0.453923 0.636949
vt 0.509189 0.636950
vt 0.454225 0.414921
vt 0.508883 0.414921
vt 0.502087 0.278086
vt 0.461022 0.278086
vt 0.470872 0.141156
vt 0.492236 0.141156
vt 0.487054 0.032277
vt 0.476049 0.032276
vt 0.473147 0.089622
vt 0.489960 0.089622
vt 0.474373 0.044677
vt 0.488731 0.044677
vn -0.185400 -0.982700 0.000000
vn -0.780600 -0.561500 0.274600
vn 0.140700 -0.735300 -0.662900
vn -0.399000 -0.633500 0.662900
vn 0.140700 -0.735300 0.662900
vn -0.399000 -0.633500 -0.662900
vn -0.780600 -0.561500 -0.274600
vn 0.522300 -0.807300 0.274600
vn 0.522300 -0.807300 -0.274600
vn 0.185400 0.982700 -0.000000
vn -0.000000 0.000000 1.000000
vn -0.004400 -0.074400 0.997200
vn -0.023900 -0.006900 -0.999700
vn 0.000000 0.000000 -1.000000
vn 0.737900 0.674900 0.000000
vn -0.034400 -0.032700 0.998900
vn -0.004400 -0.074400 -0.997200
vn -0.023900 -0.006900 0.999700
vn -0.004900 -0.034800 0.999400
vn -0.004900 -0.034800 -0.999400
vn -0.003100 -0.084700 -0.996400
vn -0.003100 -0.084700 0.996400
vn 0.254900 0.967000 -0.000000
vn 0.059600 0.085200 -0.994600
vn 0.059600 0.085200 0.994600
vn 0.013700 -0.040800 -0.999100
vn 0.019000 -0.018700 -0.999600
vn 0.110800 0.004300 -0.993800
vn 0.019000 -0.018700 0.999600
vn 0.110800 0.004300 0.993800
vn 0.013700 -0.040800 0.999100
vn -0.014200 -0.058200 -0.998200
vn -0.014200 -0.058200 0.998200
vn -0.034400 -0.032700 -0.998900
vn 0.000000 -0.033800 -0.999400
vn 1.000000 0.000000 0.000000
vn 0.000000 -0.033800 0.999400
vn 0.000000 -1.000000 0.000000
vn 0.000000 1.000000 0.000000
vn 0.000000 -0.266000 0.964000
vn 0.000000 -0.266000 -0.964000
vn 0.000000 0.413300 -0.910600
vn 0.000000 0.413300 0.910600
vn -0.023000 -0.122100 -0.992300
vn 0.007800 0.041100 -0.999100
vn 0.702000 -0.089800 -0.706500
vn 0.666400 -0.252200 -0.701600
vn 0.989500 -0.144100 0.000000
vn 0.952000 -0.306100 -0.000000
vn 0.702000 -0.089800 0.706500
vn 0.666400 -0.252200 0.701600
vn 0.007800 0.041100 0.999100
vn -0.023000 -0.122100 0.992300
vn -0.686500 0.172100 0.706500
vn -0.712500 0.008000 0.701600
vn -0.974000 0.226400 0.000000
vn -0.998100 0.061900 0.000000
vn -0.686500 0.172100 -0.706500
vn -0.640400 0.334600 -0.691300
vn 0.038900 0.206400 -0.977700
vn -0.712500 0.008000 -0.701600
vn 0.999700 0.025200 0.000000
vn 0.718300 0.078300 0.691300
vn -0.640400 0.334600 0.691300
vn -0.921800 0.387700 0.000000
vn 0.038900 0.206400 0.977700
vn 0.718300 0.078300 -0.691300
vn -0.703500 0.080400 -0.706200
vn -0.009500 -0.050500 -0.998700
vn -0.051700 -0.274300 -0.960200
vn -0.719000 -0.148400 -0.679000
vn -0.991500 -0.130100 0.000000
vn -0.718000 -0.181700 -0.671900
vn -0.703000 0.083400 -0.706300
vn -0.990500 0.137600 0.000000
vn 0.971800 -0.235600 0.000000
vn 0.684400 -0.181400 0.706200
vn 0.615500 -0.400200 0.679000
vn 0.891800 -0.452300 0.000000
vn -0.990900 0.134700 0.000000
vn -0.995300 -0.096300 0.000000
vn 0.684400 -0.181400 -0.706200
vn 0.615500 -0.400200 -0.679000
vn -0.703500 0.080400 0.706200
vn -0.719000 -0.148400 0.679000
vn -0.009500 -0.050500 0.998700
vn -0.051700 -0.274300 0.960200
vn 0.602400 -0.430800 -0.671900
vn 0.875900 -0.482400 0.000000
vn 0.972500 -0.232700 0.000000
vn 0.685100 -0.178500 -0.706300
vn -0.718000 -0.181700 0.671900
vn -0.703000 0.083400 0.706300
vn -0.057800 -0.306300 -0.950200
vn -0.009000 -0.047500 -0.998800
vn -0.057800 -0.306300 0.950200
vn -0.009000 -0.047500 0.998800
vn 0.602400 -0.430800 0.671900
vn 0.685100 -0.178500 0.706300
vn -0.679300 -0.733800 -0.000000
vn -0.679400 -0.733800 -0.000000
vn -0.973300 -0.229300 -0.000000
vn 0.409800 -0.912200 0.000000
vn -0.155900 -0.987800 -0.000000
vn -0.920300 0.391100 -0.000000
vn 0.942100 0.335400 0.000000
vn 0.031900 0.999500 0.000000
vn 0.876700 -0.481100 0.000000
vn -0.749500 0.662000 -0.000000
vn -0.979600 0.201100 -0.000000
vn -0.812800 -0.582600 -0.000000
vn -0.812800 -0.582500 -0.000000
vn 0.498100 -0.867100 -0.000000
vn 0.498000 -0.867200 -0.000000
vn 0.785000 -0.619500 -0.000000
vn -0.189800 -0.981800 -0.000000
vn -0.550600 0.834800 -0.000000
vn 0.680500 0.732700 -0.000000
vn 0.140700 0.990100 -0.000000
vn 0.975900 0.218300 -0.000000
vn -0.871600 0.490300 0.000000
vn -0.935900 -0.352300 0.000000
vn -0.027800 -0.999600 -0.000000
vn 0.543600 -0.839300 0.000000
vn -0.403500 0.915000 0.000000
vn 0.917400 -0.398000 -0.000000
vn 0.741000 -0.671500 -0.000000
vn 0.974700 -0.223300 -0.000000
vn -0.472500 0.881300 0.000000
vn -0.782100 0.623200 0.000000
vn 0.827200 0.562000 -0.000000
vn 0.225100 0.974300 -0.000000
s off
f 11/1/1 13/2/1 23/3/1 22/4/1
f 7/5/1 9/6/1 21/7/1 20/8/1
f 1/9/1 3/10/1 18/11/1 17/12/1
f 13/2/1 15/13/1 24/14/1 23/3/1
f 3/10/1 5/15/1 19/16/1 18/11/1
f 9/17/1 11/1/1 22/4/1 21/18/1
f 15/13/1 1/9/1 17/12/1 24/14/1
f 5/15/1 7/5/1 20/8/1 19/16/1
f 38/19/2 39/20/2 41/21/2
f 33/22/3 34/23/3 41/21/3
f 37/24/4 38/19/4 41/21/4
f 36/25/5 37/24/5 41/21/5
f 40/26/6 33/22/6 41/21/6
f 39/20/7 40/26/7 41/21/7
f 35/27/8 36/25/8 41/21/8
f 34/23/9 35/27/9 41/21/9
f 57/28/10 56/29/10 58/30/10
f 52/31/10 51/32/10 58/30/10
f 56/29/10 55/33/10 58/30/10
f 51/32/10 50/34/10 58/30/10
f 55/33/10 54/35/10 58/30/10
f 54/35/10 53/36/10 58/30/10
f 50/34/10 57/28/10 58/30/10
f 53/36/10 52/31/10 58/30/10
f 92/37/11 62/38/11 70/39/11 93/40/11
f 71/41/11 75/42/11 77/43/11 73/44/11
f 63/45/11 59/46/11 71/41/11 73/44/11
f 79/47/12 59/46/12 63/45/12 81/48/12
f 84/49/13 61/38/13 69/39/13 86/50/13
f 72/41/14 74/44/14 78/43/14 76/42/14
f 75/51/15 76/52/15 78/53/15 77/54/15
f 85/49/16 79/47/16 81/48/16 83/50/16
f 60/46/17 82/47/17 80/48/17 64/45/17
f 62/38/18 85/49/18 83/50/18 70/39/18
f 67/55/11 92/37/11 93/40/11 66/56/11
f 67/55/19 66/56/19 88/57/19 89/58/19
f 68/56/20 65/55/20 87/58/20 90/57/20
f 61/38/14 94/37/14 91/40/14 69/39/14
f 117/59/21 116/60/21 95/61/21 98/62/21
f 115/60/22 118/59/22 96/62/22 97/61/22
f 113/63/23 114/64/23 112/65/23 111/66/23
f 107/67/24 109/68/24 113/69/24 111/70/24
f 110/68/25 108/67/25 112/70/25 114/69/25
f 98/62/26 95/61/26 104/71/26 99/72/26
f 99/72/27 104/71/27 105/73/27 102/74/27
f 102/74/28 105/73/28 109/68/28 107/67/28
f 106/71/29 100/72/29 101/74/29 103/73/29
f 103/73/30 101/74/30 108/67/30 110/68/30
f 97/61/31 96/62/31 100/72/31 106/71/31
f 90/57/32 87/58/32 116/60/32 117/59/32
f 89/58/33 88/57/33 118/59/33 115/60/33
f 94/37/14 65/55/14 68/56/14 91/40/14
f 60/46/14 64/45/14 74/44/14 72/41/14
f 82/47/34 84/49/34 86/50/34 80/48/34
f 131/75/35 132/76/35 121/77/35 120/78/35
f 132/76/36 133/79/36 122/80/36 121/77/36
f 133/79/37 134/81/37 119/82/37 122/80/37
f 119/83/38 120/84/38 121/77/38 122/80/38
f 126/85/39 125/86/39 124/87/39 123/88/39
f 138/89/11 135/90/11 127/91/11 130/92/11
f 137/93/36 138/89/36 130/92/36 129/94/36
f 136/95/14 137/93/14 129/94/14 128/96/14
f 130/92/40 127/91/40 134/81/40 133/79/40
f 129/94/36 130/92/36 133/79/36 132/76/36
f 128/96/41 129/94/41 132/76/41 131/75/41
f 124/97/42 125/86/42 137/93/42 136/95/42
f 125/86/36 126/85/36 138/89/36 137/93/36
f 126/85/43 123/98/43 135/90/43 138/89/43
s 1
f 1/9/44 2/99/45 4/100/46 3/10/47
f 3/10/47 4/100/46 6/101/48 5/15/49
f 5/15/49 6/101/48 8/102/50 7/5/51
f 7/5/51 8/102/50 10/103/52 9/6/53
f 9/17/53 10/104/52 12/105/54 11/1/55
f 11/1/55 12/105/54 14/106/56 13/2/57
f 2/99/45 16/107/58 57/108/59 50/109/60
f 15/13/61 16/107/58 2/99/45 1/9/44
f 13/2/57 14/106/56 16/107/58 15/13/61
f 8/102/50 6/101/48 52/110/62 53/111/63
f 14/106/56 12/105/54 55/112/64 56/113/65
f 10/103/52 8/102/50 53/111/63 54/114/66
f 4/100/46 2/99/45 50/109/60 51/115/67
f 16/107/58 14/106/56 56/113/65 57/108/59
f 6/101/48 4/100/46 51/115/67 52/110/62
f 12/105/54 10/104/52 54/116/66 55/112/64
s 2
f 24/14/68 17/12/69 25/117/70 32/118/71
f 42/119/72 43/120/73 40/121/74 39/122/75
f 19/16/76 20/8/77 28/123/78 27/124/79
f 23/3/80 24/14/68 32/118/71 31/125/81
f 18/11/82 19/16/76 27/124/79 26/126/83
f 22/4/84 23/3/80 31/125/81 30/127/85
f 17/12/69 18/11/82 26/126/83 25/117/70
f 21/18/86 22/4/84 30/127/85 29/128/87
f 20/8/77 21/7/86 29/129/87 28/123/78
f 44/130/88 45/131/89 35/132/90 34/133/91
f 46/134/92 42/119/72 39/122/75 38/135/93
f 47/136/94 44/130/88 34/133/91 33/137/95
f 48/138/96 46/134/92 38/135/93 37/139/97
f 49/140/98 48/141/96 37/142/97 36/143/99
f 43/120/73 47/136/94 33/137/95 40/121/74
f 45/131/89 49/140/98 36/143/99 35/132/90
f 32/118/71 25/117/70 47/136/94 43/120/73
f 27/124/79 28/123/78 49/140/98 45/131/89
f 28/123/78 29/129/87 48/141/96 49/140/98
f 29/128/87 30/127/85 46/134/92 48/138/96
f 25/117/70 26/126/83 44/130/88 47/136/94
f 30/127/85 31/125/81 42/119/72 46/134/92
f 26/126/83 27/124/79 45/131/89 44/130/88
f 31/125/81 32/118/71 43/120/73 42/119/72
s 3
f 93/144/100 91/145/101 68/146/102 66/147/102
f 83/148/103 86/149/103 69/150/104 70/151/104
f 66/147/102 68/146/102 90/152/105 88/153/105
f 64/154/106 63/155/106 73/156/107 74/157/107
f 86/149/103 83/148/103 81/158/108 80/159/108
f 63/155/106 64/154/106 80/159/108 81/158/108
f 70/151/104 69/150/104 91/145/101 93/144/100
f 118/160/109 117/161/109 98/162/110 96/163/110
f 96/163/110 98/162/110 99/164/111 100/165/112
f 108/166/113 107/167/114 111/168/115 112/169/115
f 100/165/112 99/164/111 102/170/116 101/171/116
f 101/171/116 102/170/116 107/167/114 108/166/113
f 88/153/105 90/152/105 117/161/109 118/160/109
f 73/156/107 77/54/117 78/53/117 74/157/107
s 4
f 92/172/118 94/173/118 61/174/119 62/175/119
f 65/176/120 94/173/118 92/172/118 67/177/120
f 79/178/121 82/179/121 60/180/122 59/181/122
f 59/181/122 60/180/122 72/182/123 71/183/123
f 72/182/123 76/184/124 75/185/124 71/183/123
f 82/179/121 79/178/121 85/186/125 84/187/125
f 62/175/119 61/174/119 84/187/125 85/186/125
f 65/176/120 67/177/120 89/188/126 87/189/126
f 116/190/127 115/191/127 97/192/128 95/193/128
f 109/194/129 110/195/129 114/64/130 113/63/130
f 95/193/128 97/192/128 106/196/131 104/197/131
f 104/197/131 106/196/131 103/198/132 105/199/132
f 105/199/132 103/198/132 110/195/129 109/194/129
f 87/189/126 89/188/126 115/191/127 116/190/127
