# Blender v2.73 (sub 0) OBJ File: 'props and shit.blend'
# www.blender.org
o Cube.010
v 19.377106 12.221081 -9.398610
v 18.015339 12.221081 -9.802212
v 20.074236 12.221081 -7.746670
v 19.453735 14.308943 -9.435779
v 18.086586 14.308943 -9.840977
v 20.153624 14.308943 -7.777306
v -19.377102 12.221081 -9.398616
v -18.015335 12.221081 -9.802217
v -20.074232 12.221081 -7.746675
v -19.453732 14.308943 -9.435784
v -18.086582 14.308943 -9.840982
v -20.153620 14.308943 -7.777311
v 19.377102 12.221081 9.398616
v 18.015335 12.221081 9.802217
v 20.074232 12.221081 7.746675
v 19.453732 14.308943 9.435784
v 18.086582 14.308943 9.840982
v 20.153620 14.308943 7.777311
v -19.377106 12.221081 9.398610
v -18.015339 12.221081 9.802212
v -20.074236 12.221081 7.746670
v -19.453735 14.308943 9.435779
v -18.086586 14.308943 9.840977
v -20.153624 14.308943 7.777306
v -20.454962 14.091457 7.893593
v -18.357018 14.091457 9.988120
v -19.744610 14.091457 9.576863
v 20.454958 14.091457 7.893599
v 18.357014 14.091457 9.988126
v 19.744606 14.091457 9.576869
v -20.454958 14.091457 -7.893599
v -18.357014 14.091457 -9.988126
v -19.744606 14.091457 -9.576869
v 20.454962 14.091457 -7.893593
v 18.357018 14.091457 -9.988120
v 19.744610 14.091457 -9.576863
v 19.744610 12.577995 -9.576863
v -20.454958 12.577995 -7.893599
v -18.357014 12.577995 -9.988126
v -19.744606 12.577995 -9.576869
v 19.744606 12.577995 9.576869
v 20.454962 12.577995 -7.893593
v -19.744610 12.577995 9.576863
v 18.357018 12.577995 -9.988120
v -20.454962 12.577995 7.893593
v -18.357018 12.577995 9.988120
v 20.454958 12.577995 7.893599
v 18.357014 12.577995 9.988126
v 18.448973 0.996881 -9.628772
v 18.448973 0.000000 -9.628772
v 18.668053 0.996881 -8.954755
v 18.668053 0.000000 -8.954755
v 17.681490 0.996881 -9.837420
v 17.681490 0.000000 -9.837420
v 8.119083 0.996881 -9.628774
v 8.119083 0.000000 -9.628774
v 7.900002 0.996881 -8.954757
v 7.900002 0.000000 -8.954757
v 8.886566 0.996881 -9.837421
v 8.886566 0.000000 -9.837421
v 18.448969 0.996881 9.628778
v 18.448969 0.000000 9.628778
v 18.668049 0.996881 8.954761
v 18.668049 0.000000 8.954761
v 17.681486 0.996881 9.837425
v 17.681486 0.000000 9.837425
v 8.119080 0.996881 9.628776
v 8.119080 0.000000 9.628776
v 7.899999 0.996881 8.954759
v 7.899999 0.000000 8.954759
v 8.886562 0.996881 9.837423
v 8.886562 0.000000 9.837423
v 17.000589 0.764265 -9.481238
v 8.342695 0.764265 -9.481240
v 17.679050 12.301967 -9.481238
v 8.342695 12.301967 -9.481240
v 17.007172 9.746244 -9.481238
v 8.342695 9.746244 -9.481240
v 18.961105 12.301967 -8.495000
v 18.282644 0.764265 -8.495000
v 8.450006 12.301967 -8.715280
v 8.450006 9.746244 -8.715280
v 18.289227 9.746244 -8.495000
v 8.056897 9.746244 -9.233640
v 8.056897 9.746244 -8.715280
v 7.409423 10.274720 -9.233640
v 7.409423 10.274720 -8.715280
v 0.000001 12.301967 -9.233641
v 2.572812 10.911695 -9.233641
v 0.000001 12.301967 -8.715282
v 2.572812 10.911695 -8.715281
v 7.762197 9.830812 -9.233640
v 7.762197 9.830812 -8.715280
v 5.781634 10.559136 -8.715280
v 5.781634 10.559136 -9.233640
v 17.000586 0.764265 9.481244
v 8.342691 0.764265 9.481242
v 17.679047 12.301967 9.481244
v 8.342691 12.301967 9.481242
v 17.007168 9.746244 9.481244
v 8.342691 9.746244 9.481242
v 18.961102 12.301967 8.495006
v 18.282640 0.764265 8.495006
v 8.450006 12.301967 -9.233640
v 8.450006 9.746244 -9.233640
v 18.289223 9.746244 8.495006
v 8.670900 4.349238 -9.481240
v 16.740412 4.349238 -9.481238
v 18.022467 4.349238 -8.495000
v 8.670897 4.349238 9.481242
v 16.740408 4.349238 9.481244
v 18.022463 4.349238 8.495006
v 0.506454 10.402294 -8.715281
v 0.506454 10.402294 -9.233641
v -17.681488 0.000000 9.837420
v -17.681488 0.996881 9.837420
v -18.668051 0.000000 8.954755
v -18.668051 0.996881 8.954755
v -18.448971 0.000000 9.628772
v -18.448971 0.996881 9.628772
v -8.886564 0.000000 9.837421
v -8.886564 0.996881 9.837421
v -7.900002 0.000000 8.954757
v -7.900002 0.996881 8.954757
v -8.119081 0.000000 9.628774
v -8.119081 0.996881 9.628774
v -17.681484 0.000000 -9.837425
v -17.681484 0.996881 -9.837425
v -18.668047 0.000000 -8.954761
v -18.668047 0.996881 -8.954761
v -18.448967 0.000000 -9.628778
v -18.448967 0.996881 -9.628778
v -8.886560 0.000000 -9.837423
v -8.886560 0.996881 -9.837423
v -7.899999 0.000000 -8.954759
v -7.899999 0.996881 -8.954759
v -8.119078 0.000000 -9.628776
v -8.119078 0.996881 -9.628776
v -17.000586 0.764265 -9.481244
v -8.342693 0.764265 -9.481242
v -17.679047 12.301967 -9.481244
v -8.342693 12.301967 -9.481242
v -17.007168 9.746244 -9.481244
v -8.342693 9.746244 -9.481242
v -18.961102 12.301967 -8.495006
v -18.282640 0.764265 -8.495006
v -8.450006 12.301967 -8.715281
v -8.450006 9.746244 -8.715281
v -18.289223 9.746244 -8.495006
v -8.056895 9.746244 -9.233642
v -8.056895 9.746244 -8.715281
v -7.409421 10.274720 -9.233642
v -7.409421 10.274720 -8.715281
v -2.572810 10.911695 -9.233641
v -2.572810 10.911695 -8.715281
v -7.762195 9.830812 -9.233642
v -7.762195 9.830812 -8.715281
v -5.781632 10.559136 -8.715281
v -5.781632 10.559136 -9.233642
v -17.000589 0.764265 9.481238
v -8.342697 0.764265 9.481240
v -17.679050 12.301967 9.481238
v -17.007172 9.746244 9.481238
v -8.342697 9.746244 9.481240
v -18.961105 12.301967 8.495000
v -18.282644 0.764265 8.495000
v 8.056895 9.746244 8.434203
v -18.289227 9.746244 8.495000
v -8.670897 4.349238 -9.481242
v -16.740408 4.349238 -9.481244
v -18.022463 4.349238 -8.495006
v -8.670900 4.349238 9.481240
v -16.740412 4.349238 9.481238
v -18.022467 4.349238 8.495000
v 0.000001 10.290828 -9.233641
v 0.000001 10.290828 -8.715281
v -0.506452 10.402294 -8.715281
v -0.506452 10.402294 -9.233641
v -8.342697 12.301967 9.481240
v 8.056895 9.746244 8.971812
v 7.409420 10.274720 8.971812
v 7.409420 10.274720 8.434203
v -8.450006 12.301967 -9.233642
v -8.450006 9.746244 -9.233642
v -0.000002 12.301967 8.971811
v 2.572809 10.911695 8.971811
v -0.000002 12.301967 8.434202
v 2.572809 10.911695 8.434202
v 7.762194 9.830812 8.971812
v 7.762194 9.830812 8.434203
v 5.781631 10.559136 8.434203
v 5.781631 10.559136 8.971812
v -8.450007 12.301967 8.971810
v -8.450007 12.301967 8.434201
v -8.056897 9.746244 8.971810
v -8.056897 9.746244 8.434201
v -7.409424 10.274720 8.971810
v -7.409424 10.274720 8.434201
v -2.572813 10.911695 8.971811
v -2.572812 10.911695 8.434202
v -7.762197 9.830812 8.971810
v -7.762197 9.830812 8.434201
v -5.781635 10.559136 8.434201
v -5.781635 10.559136 8.971810
v -0.000002 11.219714 8.971811
v -0.000002 11.219714 8.434202
v -8.450007 9.746244 8.971810
v -8.450007 9.746244 8.434201
v 8.450004 12.301967 8.971812
v 8.450004 9.746244 8.971812
v 8.450004 12.301967 8.434203
v 8.450004 9.746244 8.434203
vt 0.003723 0.738559
vt 0.031302 0.711024
vt 0.031302 0.973629
vt 0.003723 0.946095
vt 0.513940 0.973629
vt 0.513939 0.711024
vt 0.532181 0.968223
vt 0.541519 0.946095
vt 0.013061 0.968223
vt 0.926861 0.787122
vt 0.933148 0.802019
vt 0.914581 0.783482
vt 0.541519 0.738559
vt 0.013061 0.716431
vt 0.532181 0.716431
vt 0.992734 0.809468
vt 0.976120 0.809468
vt 0.976120 0.821280
vt 0.992734 0.821280
vt 0.816509 0.409833
vt 0.496060 0.409833
vt 0.480266 0.392181
vt 0.832302 0.392181
vt 0.992734 0.510982
vt 0.992734 0.499170
vt 0.976120 0.499170
vt 0.976120 0.510982
vt 0.976120 0.834536
vt 0.992734 0.834536
vt 0.828569 0.405902
vt 0.992734 0.981115
vt 0.976120 0.981115
vt 0.992734 0.015781
vt 0.992734 0.003969
vt 0.976120 0.003969
vt 0.976120 0.015781
vt 0.484000 0.221084
vt 0.496059 0.217164
vt 0.480266 0.234816
vt 0.816509 0.217153
vt 0.832302 0.234805
vt 0.992734 0.994371
vt 0.976120 0.994371
vt 0.484000 0.405902
vt 0.976120 0.314268
vt 0.992734 0.314268
vt 0.992734 0.485914
vt 0.976120 0.485914
vt 0.828569 0.221073
vt 0.992734 0.339335
vt 0.976120 0.339335
vt 0.976120 0.326079
vt 0.992734 0.326079
vt 0.959602 0.511778
vt 0.762257 0.511466
vt 0.756775 0.423875
vt 0.967823 0.424409
vt 0.968531 0.705105
vt 0.740148 0.707315
vt 0.755418 0.644314
vt 0.968019 0.642919
vt 0.369975 0.138060
vt 0.402319 0.075048
vt 0.452916 0.083888
vt 0.539295 0.009426
vt 0.548724 0.009426
vt 0.548724 0.022320
vt 0.539295 0.022320
vt 0.632625 0.138060
vt 0.648367 0.079013
vt 0.712595 0.094847
vt 0.632625 0.075548
vt 0.382194 0.058621
vt 0.391354 0.061250
vt 0.552655 0.094847
vt 0.539295 0.034907
vt 0.539295 0.022475
vt 0.548724 0.022475
vt 0.548724 0.034907
vt 0.556077 0.034907
vt 0.556077 0.022475
vt 0.569676 0.022475
vt 0.569676 0.034907
vt 0.609309 0.034907
vt 0.609309 0.022475
vt 0.686732 0.022475
vt 0.686732 0.034908
vt 0.369975 0.058621
vt 0.616883 0.079013
vt 0.432796 0.513193
vt 0.424575 0.425824
vt 0.635623 0.425290
vt 0.630141 0.512881
vt 0.423866 0.706520
vt 0.424379 0.644334
vt 0.636979 0.645730
vt 0.652249 0.708730
vt 0.002088 0.002693
vt 0.023467 0.079504
vt 0.014307 0.082132
vt 0.556077 0.009426
vt 0.569676 0.009426
vt 0.569676 0.022320
vt 0.556077 0.022320
vt 0.085028 0.056865
vt 0.034432 0.065706
vt 0.737776 0.034908
vt 0.737776 0.022475
vt 0.750213 0.022475
vt 0.750213 0.034908
vt 0.895274 0.138060
vt 0.812334 0.083888
vt 0.862930 0.075048
vt 0.873895 0.061250
vt 0.883055 0.058621
vt 0.264737 0.002693
vt 0.184767 0.045907
vt 0.961132 0.034908
vt 0.951703 0.034908
vt 0.951703 0.022475
vt 0.961132 0.022475
vt 0.944350 0.034908
vt 0.930751 0.034908
vt 0.930751 0.022475
vt 0.944350 0.022475
vt 0.895274 0.058621
vt 0.891118 0.034908
vt 0.813694 0.034908
vt 0.813694 0.022475
vt 0.891118 0.022475
vt 0.762651 0.034908
vt 0.762651 0.022475
vt 0.926861 0.956631
vt 0.914581 0.960271
vt 0.933148 0.941734
vt 0.577384 0.787122
vt 0.589665 0.783482
vt 0.571098 0.802019
vt 0.577384 0.956631
vt 0.571098 0.941734
vt 0.589664 0.960271
vt 0.495043 0.065680
vt 0.527387 0.002667
vt 0.444447 0.056839
vt 0.609309 0.009426
vt 0.686732 0.009426
vt 0.686732 0.022320
vt 0.609309 0.022320
vt 0.002088 0.082132
vt 0.344707 0.045907
vt 0.264737 0.036333
vt 0.748879 0.009426
vt 0.748879 0.022320
vt 0.515168 0.082106
vt 0.506008 0.079478
vt 0.444447 0.056865
vt 0.527387 0.082106
vt 0.085028 0.056839
vt 0.958464 0.009425
vt 0.958464 0.022319
vt 0.949036 0.022319
vt 0.949036 0.009425
vt 0.941682 0.009425
vt 0.941682 0.022319
vt 0.928083 0.022319
vt 0.928083 0.009425
vt 0.888450 0.009425
vt 0.888450 0.022320
vt 0.811027 0.022320
vt 0.811027 0.009426
vt 0.165709 0.997390
vt 0.037560 0.997390
vt 0.037560 0.993965
vt 0.165709 0.993965
vt 0.180129 0.993965
vt 0.193675 0.993965
vt 0.193675 0.997390
vt 0.180129 0.997390
vt 0.458779 0.981395
vt 0.193675 0.981395
vt 0.193675 0.976880
vt 0.458779 0.976880
vt 0.472321 0.993965
vt 0.472321 0.997390
vt 0.458779 0.997390
vt 0.458779 0.993965
vt 0.486759 0.993965
vt 0.486759 0.997390
vt 0.486759 0.981395
vt 0.486759 0.976880
vt 0.614699 0.976880
vt 0.614699 0.981395
vt 0.923273 0.993965
vt 0.923273 0.997390
vt 0.907743 0.997390
vt 0.907743 0.993965
vt 0.642663 0.993965
vt 0.642663 0.997390
vt 0.021943 0.997390
vt 0.021943 0.993965
vt 0.629120 0.993965
vt 0.629120 0.997390
vt 0.614699 0.993965
vt 0.614699 0.997390
vt 0.165709 0.981395
vt 0.037560 0.981395
vt 0.037560 0.976880
vt 0.165709 0.976880
vt 0.923273 0.981395
vt 0.907743 0.981395
vt 0.642663 0.981395
vt 0.021943 0.981395
vt 0.629120 0.981395
vt 0.180129 0.981395
vt 0.472321 0.981395
vt 0.472321 0.976880
vt 0.180129 0.976880
vt 0.629120 0.976880
vt 0.642663 0.976880
vt 0.021943 0.976880
vt 0.907743 0.976880
vt 0.923273 0.976880
vt 0.012324 0.226050
vt 0.012324 0.353842
vt 0.460496 0.353842
vt 0.460496 0.226050
vt 0.413871 0.511529
vt 0.413871 0.426576
vt 0.012318 0.426577
vt 0.012318 0.511529
vt 0.669594 0.512730
vt 0.676670 0.644727
vt 0.691709 0.707451
vt 0.413871 0.701697
vt 0.413871 0.639241
vt 0.012318 0.639241
vt 0.012318 0.701697
vt 0.012324 0.141728
vt 0.460496 0.141707
vt 0.460500 0.226791
vt 0.012328 0.226812
vt 0.715727 0.643312
vt 0.722804 0.511314
vt 0.700684 0.706033
vt 0.674973 0.425453
vt 0.717425 0.424038
vt 0.012334 0.354604
vt 0.460506 0.354583
vt 0.460508 0.414987
vt 0.012337 0.415008
vt 0.012324 0.140967
vt 0.460496 0.140967
vt 0.012324 0.414246
vt 0.460496 0.414246
vn 0.000000 1.000000 0.000000
vn 0.000000 -1.000000 -0.000000
vn 0.951000 0.000000 -0.309100
vn 0.951000 0.000000 0.309100
vn 0.262300 0.000000 -0.965000
vn 1.000000 0.000000 0.000000
vn 0.000000 0.000000 -1.000000
vn -0.951000 0.000000 -0.309100
vn -0.262300 0.000000 -0.965000
vn -1.000000 0.000000 -0.000000
vn 0.262300 0.000000 0.965000
vn -0.000000 0.000000 1.000000
vn -0.951000 0.000000 0.309100
vn -0.262300 0.000000 0.965000
vn -0.782900 -0.622200 0.000000
vn -0.109200 -0.994000 0.000000
vn -0.275800 -0.961200 0.000000
vn -0.172100 -0.985100 0.000000
vn 0.214900 -0.976600 -0.000000
vn 0.239400 -0.970900 -0.000000
vn 0.782900 -0.622200 0.000000
vn 0.109200 -0.994000 0.000000
vn 0.275800 -0.961200 0.000000
vn 0.172100 -0.985100 0.000000
vn -0.214900 -0.976600 0.000000
vn -0.239400 -0.970900 0.000000
vn -0.118900 -0.992900 0.000000
vn 0.118900 -0.992900 -0.000000
vn 0.556400 0.824800 -0.100600
vn 0.556400 0.824800 0.100600
vn 0.877000 0.444600 0.182200
vn 0.877000 0.444600 -0.182200
vn 0.621000 0.414700 -0.665100
vn 0.157200 0.351500 -0.922900
vn 0.058200 0.608000 -0.791800
vn 0.346600 0.790800 -0.504500
vn -0.159500 -0.292900 -0.942700
vn 0.159500 -0.292900 -0.942700
vn 0.070500 -0.513100 -0.855500
vn -0.070500 -0.513100 -0.855500
vn -0.621000 0.414700 -0.665100
vn -0.346600 0.790800 -0.504500
vn -0.058200 0.608000 -0.791800
vn -0.157200 0.351500 -0.922900
vn -0.877000 0.444600 -0.182200
vn -0.556400 0.824800 -0.100600
vn -0.900500 -0.392300 -0.187200
vn -0.654000 -0.746900 -0.119700
vn -0.654000 -0.746900 0.119700
vn -0.900500 -0.392300 0.187200
vn 0.621000 0.414700 0.665100
vn 0.346600 0.790800 0.504500
vn 0.058200 0.608000 0.791800
vn 0.157200 0.351500 0.922900
vn -0.157200 0.351500 0.922900
vn -0.058200 0.608000 0.791800
vn -0.621000 0.414700 0.665100
vn -0.346600 0.790800 0.504500
vn -0.877000 0.444600 0.182200
vn -0.556400 0.824800 0.100600
vn 0.900500 -0.392300 -0.187200
vn 0.900500 -0.392300 0.187200
vn 0.654000 -0.746900 0.119700
vn 0.654000 -0.746900 -0.119700
vn 0.635700 -0.365900 0.679600
vn 0.159500 -0.292900 0.942700
vn -0.159500 -0.292900 0.942700
vn -0.635700 -0.365900 0.679600
vn 0.635700 -0.365900 -0.679600
vn -0.635700 -0.365900 -0.679600
vn -0.409500 -0.708600 -0.574500
vn 0.409500 -0.708600 -0.574500
vn -0.409500 -0.708600 0.574500
vn -0.070500 -0.513100 0.855500
vn 0.409500 -0.708600 0.574500
vn 0.070500 -0.513100 0.855500
vn 0.999900 0.015300 0.000000
vn 0.999500 -0.030400 0.000000
vn 0.893600 0.010400 0.448700
vn 0.899100 0.065200 0.432900
vn 0.899100 0.065200 -0.432900
vn 0.893600 0.010400 -0.448700
vn 0.609700 0.006800 0.792600
vn 0.881700 -0.139300 0.450700
vn 0.607300 -0.089200 0.789500
vn 0.602000 -0.158300 0.782600
vn 0.884600 -0.232600 0.404200
vn 0.881700 -0.139300 -0.450700
vn 0.884600 -0.232600 -0.404200
vn -0.995800 0.091200 -0.000000
vn -0.999900 0.015300 -0.000000
vn 0.609700 0.006800 -0.792600
vn 0.607300 -0.089200 -0.789500
vn 0.602000 -0.158300 -0.782600
vn 0.609100 0.044200 0.791800
vn 0.609100 0.044200 -0.791800
vn -0.999500 -0.030400 -0.000000
vn -0.893600 0.010400 0.448700
vn -0.893600 0.010400 -0.448700
vn -0.899100 0.065200 -0.432900
vn -0.899100 0.065200 0.432900
vn -0.609700 0.006800 0.792600
vn -0.607300 -0.089200 0.789500
vn -0.881700 -0.139300 0.450700
vn -0.602000 -0.158300 0.782600
vn -0.884600 -0.232600 0.404200
vn -0.884600 -0.232600 -0.404200
vn -0.881700 -0.139300 -0.450700
vn -0.607300 -0.089200 -0.789500
vn -0.609700 0.006800 -0.792600
vn -0.602000 -0.158300 -0.782600
vn -0.609100 0.044200 0.791800
vn -0.609100 0.044200 -0.791800
vn 0.995800 0.091200 0.000000
s off
f 6/1/1 5/2/1 17/3/1 18/4/1
f 23/5/1 17/3/1 5/2/1 11/6/1
f 22/7/1 23/5/1 24/8/1
f 16/9/1 18/4/1 17/3/1
f 19/10/2 21/11/2 20/12/2
f 12/13/1 24/8/1 23/5/1 11/6/1
f 4/14/1 5/2/1 6/1/1
f 10/15/1 12/13/1 11/6/1
f 51/16/3 52/17/3 50/18/3 49/19/3
f 70/20/2 58/21/2 60/22/2 72/23/2
f 124/24/4 126/25/4 125/26/4 123/27/4
f 49/19/5 50/18/5 54/28/5 53/29/5
f 61/30/1 63/20/1 65/23/1
f 51/16/6 63/24/6 64/27/6 52/17/6
f 59/31/7 53/29/7 54/28/7 60/32/7
f 57/33/8 55/34/8 56/35/8 58/36/8
f 50/37/2 52/38/2 54/39/2
f 69/40/1 71/41/1 59/39/1 57/38/1
f 55/42/9 59/31/9 60/32/9 56/43/9
f 49/44/1 53/22/1 51/21/1
f 58/36/10 70/45/10 69/46/10 57/33/10
f 63/24/4 61/25/4 62/26/4 64/27/4
f 71/41/1 65/23/1 53/22/1 59/39/1
f 61/25/11 65/47/11 66/48/11 62/26/11
f 72/23/2 60/22/2 54/39/2 66/41/2
f 67/49/1 71/41/1 69/40/1
f 71/50/12 72/51/12 66/48/12 65/47/12
f 68/30/2 70/20/2 72/23/2
f 69/46/13 70/45/13 68/52/13 67/53/13
f 62/49/2 66/41/2 64/40/2
f 120/49/1 116/41/1 118/40/1
f 67/53/14 68/52/14 72/51/14 71/50/14
f 107/54/7 108/55/7 73/56/7 74/57/7
f 76/58/7 75/59/7 77/60/7 78/61/7
f 104/62/7 86/63/7 95/64/7
f 210/65/2 180/66/2 167/67/2 212/68/2
f 88/69/7 178/70/7 154/71/7
f 88/69/7 175/72/7 178/70/7
f 104/62/7 84/73/7 92/74/7
f 104/62/7 95/64/7 89/75/7 88/69/7
f 105/76/2 82/77/2 85/78/2 84/79/2
f 92/80/15 93/81/15 87/82/15 86/83/15
f 95/84/16 94/85/16 91/86/16 89/87/16
f 104/62/7 105/88/7 84/73/7
f 88/69/7 89/75/7 114/89/7
f 88/69/7 114/89/7 175/72/7
f 84/79/17 85/78/17 93/81/17 92/80/17
f 104/62/7 92/74/7 86/63/7
f 86/83/18 87/82/18 94/85/18 95/84/18
f 110/90/12 97/91/12 96/92/12 111/93/12
f 99/94/12 101/95/12 100/96/12 98/97/12
f 209/98/12 189/99/12 180/100/12
f 189/101/15 181/102/15 182/103/15 190/104/15
f 101/95/12 110/90/12 111/93/12 100/96/12
f 209/98/12 192/105/12 181/106/12
f 78/61/7 77/60/7 108/55/7 107/54/7
f 114/107/19 113/108/19 176/109/19 175/110/19
f 183/111/7 159/112/7 152/113/7
f 183/111/7 156/114/7 150/115/7
f 89/87/20 91/86/20 113/108/20 114/107/20
f 129/36/10 117/45/10 118/46/10 130/33/10
f 124/20/1 136/21/1 134/22/1 122/23/1
f 132/37/1 130/38/1 128/39/1
f 119/30/2 117/20/2 115/23/2
f 125/49/2 121/41/2 123/40/2
f 120/53/14 119/52/14 115/51/14 116/50/14
f 116/50/12 115/51/12 121/48/12 122/47/12
f 126/25/11 122/47/11 121/48/11 125/26/11
f 115/23/2 127/22/2 133/39/2 121/41/2
f 116/41/1 122/23/1 134/22/1 128/39/1
f 132/42/9 128/31/9 127/32/9 131/43/9
f 137/37/2 135/38/2 133/39/2
f 138/44/1 134/22/1 136/21/1
f 118/40/1 116/41/1 128/39/1 130/38/1
f 136/16/6 124/24/6 123/27/6 135/17/6
f 130/33/8 132/34/8 131/35/8 129/36/8
f 128/31/7 134/29/7 133/28/7 127/32/7
f 131/44/2 127/22/2 129/21/2
f 138/19/5 137/18/5 133/28/5 134/29/5
f 136/16/3 135/17/3 137/18/3 138/19/3
f 126/30/1 124/20/1 122/23/1
f 117/20/2 129/21/2 127/22/2 115/23/2
f 169/54/7 140/57/7 139/56/7 170/55/7
f 142/58/7 144/61/7 143/60/7 141/59/7
f 87/63/12 81/62/12 94/64/12
f 209/98/12 185/116/12 186/117/12 192/105/12
f 85/73/12 81/62/12 93/74/12
f 184/118/2 150/119/2 151/120/2 148/121/2
f 156/122/21 152/123/21 153/124/21 157/125/21
f 183/111/7 150/115/7 184/126/7
f 159/127/22 154/128/22 155/129/22 158/130/22
f 93/74/12 81/62/12 87/63/12
f 150/119/23 156/122/23 157/125/23 151/120/23
f 94/64/12 81/62/12 90/69/12 91/75/12
f 152/123/24 159/127/24 158/130/24 153/124/24
f 172/90/12 173/93/12 160/92/12 161/91/12
f 179/94/12 162/97/12 163/96/12 164/95/12
f 164/95/12 163/96/12 173/93/12 172/90/12
f 144/61/7 169/54/7 170/55/7 143/60/7
f 178/131/25 175/110/25 176/109/25 177/132/25
f 183/111/7 152/113/7 156/114/7
f 183/111/7 88/69/7 154/71/7 159/112/7
f 154/128/26 178/131/26 177/132/26 155/129/26
f 113/89/12 90/69/12 176/72/12
f 91/75/12 90/69/12 113/89/12
f 82/88/12 81/62/12 85/73/12
f 177/70/12 176/72/12 90/69/12
f 155/71/12 177/70/12 90/69/12
f 148/126/12 151/115/12 147/111/12
f 151/115/12 157/114/12 147/111/12
f 64/40/2 66/41/2 54/39/2 52/38/2
f 56/44/2 60/22/2 58/21/2
f 63/20/1 51/21/1 53/22/1 65/23/1
f 118/46/13 117/45/13 119/52/13 120/53/13
f 55/37/1 57/38/1 59/39/1
f 123/40/2 121/41/2 133/39/2 135/38/2
f 7/133/2 8/134/2 9/135/2
f 13/136/2 14/137/2 15/138/2
f 21/11/2 15/138/2 14/137/2 20/12/2
f 1/139/2 3/140/2 2/141/2
f 8/134/2 2/141/2 3/140/2 9/135/2
f 9/135/2 3/140/2 15/138/2 21/11/2
f 198/142/7 194/143/7 203/144/7
f 192/145/16 186/146/16 188/147/16 191/148/16
f 209/98/12 180/100/12 210/149/12
f 180/66/17 189/101/17 190/104/17 167/67/17
f 209/98/12 181/106/12 189/99/12
f 185/116/12 199/150/12 205/151/12
f 181/102/18 192/145/18 191/148/18 182/103/18
f 186/146/27 205/152/27 206/153/27 188/147/27
f 196/154/7 194/143/7 202/155/7
f 202/155/7 194/143/7 198/142/7
f 193/143/12 204/156/12 199/150/12 185/116/12
f 208/157/7 194/143/7 196/154/7
f 193/143/12 197/142/12 204/156/12
f 182/106/7 191/158/7 211/98/7
f 167/100/7 190/99/7 211/98/7
f 207/159/2 208/160/2 196/161/2 195/162/2
f 201/163/21 202/164/21 198/165/21 197/166/21
f 190/99/7 182/106/7 211/98/7
f 204/167/22 203/168/22 200/169/22 199/170/22
f 191/158/7 188/117/7 187/116/7 211/98/7
f 212/149/7 167/100/7 211/98/7
f 195/162/23 196/161/23 202/164/23 201/163/23
f 193/143/12 201/155/12 197/142/12
f 185/116/12 205/151/12 186/117/12
f 197/166/24 198/165/24 203/168/24 204/167/24
f 199/170/28 200/169/28 206/153/28 205/152/28
f 188/117/7 206/151/7 187/116/7
f 203/144/7 194/143/7 187/116/7 200/150/7
f 200/150/7 187/116/7 206/151/7
f 157/114/12 153/113/12 147/111/12
f 153/113/12 158/112/12 147/111/12
f 158/112/12 155/71/12 90/69/12 147/111/12
f 193/143/12 195/154/12 201/155/12
f 193/143/12 207/157/12 195/154/12
s 1
f 6/171/29 18/172/30 28/173/31 34/174/32
f 36/175/33 35/176/34 5/177/35 4/178/36
f 34/174/32 36/175/33 4/178/36 6/171/29
f 39/179/37 44/180/38 2/181/39 8/182/40
f 33/183/41 10/184/42 11/185/43 32/186/44
f 31/187/45 12/188/46 10/184/42 33/183/41
f 38/189/47 9/190/48 21/191/49 45/192/50
f 30/193/51 16/194/52 17/195/53 29/196/54
f 26/197/55 29/196/54 17/195/53 23/198/56
f 28/173/31 18/172/30 16/199/52 30/200/51
f 27/201/57 26/197/55 23/198/56 22/202/58
f 25/203/59 27/201/57 22/202/58 24/204/60
f 42/205/61 47/206/62 15/207/63 3/208/64
f 41/209/65 30/193/51 29/196/54 48/210/66
f 46/211/67 48/210/66 29/196/54 26/197/55
f 47/206/62 28/173/31 30/200/51 41/212/65
f 43/213/68 46/211/67 26/197/55 27/201/57
f 45/192/50 43/213/68 27/201/57 25/203/59
f 37/214/69 44/180/38 35/176/34 36/175/33
f 42/205/61 37/214/69 36/175/33 34/174/32
f 11/185/43 5/177/35 35/176/34 32/186/44
f 40/215/70 33/183/41 32/186/44 39/179/37
f 38/189/47 31/187/45 33/183/41 40/215/70
f 12/188/46 31/187/45 25/203/59 24/204/60
f 9/190/48 38/189/47 40/215/70 7/216/71
f 7/216/71 40/215/70 39/179/37 8/182/40
f 3/208/64 1/217/72 37/214/69 42/205/61
f 1/217/72 2/181/39 44/180/38 37/214/69
f 21/191/49 19/218/73 43/213/68 45/192/50
f 19/218/73 20/219/74 46/211/67 43/213/68
f 15/207/63 47/206/62 41/212/65 13/220/75
f 20/219/74 14/221/76 48/210/66 46/211/67
f 13/222/75 41/209/65 48/210/66 14/221/76
f 34/174/32 28/173/31 47/206/62 42/205/61
f 31/187/45 38/189/47 45/192/50 25/203/59
f 32/186/44 35/176/34 44/180/38 39/179/37
f 169/223/77 144/224/78 164/225/78 172/226/77
f 112/227/79 103/228/80 80/229/81 109/230/82
f 111/93/83 112/231/79 106/232/84 100/96/85
f 98/97/86 100/96/85 106/232/84 102/233/87
f 102/234/87 106/235/84 83/236/88 79/237/89
f 74/238/90 97/239/90 110/240/91 107/241/91
f 106/235/84 112/227/79 109/230/82 83/236/88
f 83/242/88 109/243/82 108/55/92 77/60/93
f 75/59/94 79/244/89 83/242/88 77/60/93
f 111/93/83 96/92/95 103/245/80 112/231/79
f 109/243/82 80/246/81 73/56/96 108/55/92
f 78/247/97 101/248/97 99/249/10 76/250/10
f 174/227/98 171/230/99 146/229/100 166/228/101
f 173/93/102 163/96/103 168/232/104 174/231/98
f 162/97/105 165/233/106 168/232/104 163/96/103
f 165/234/106 145/237/107 149/236/108 168/235/104
f 107/241/91 110/240/91 101/248/97 78/247/97
f 168/235/104 149/236/108 171/230/99 174/227/98
f 149/242/108 143/60/109 170/55/110 171/243/99
f 141/59/111 143/60/109 149/242/108 145/244/107
f 173/93/102 174/231/98 166/245/101 160/92/112
f 171/243/99 170/55/110 139/56/113 146/246/100
f 140/251/114 169/223/77 172/226/77 161/252/114
f 144/224/78 142/253/6 179/254/6 164/225/78
