# Blender v2.73 (sub 0) OBJ File: 'barrel.blend'
# www.blender.org
o Cube.001_Cube.002
v -1.662434 -0.103483 0.541215
v -1.386938 -0.103483 -0.541215
v 2.024988 -0.103483 -0.541215
v 1.403196 -0.103483 0.541215
v -1.662434 0.103483 0.541215
v -1.386938 0.103483 -0.541215
v 2.024988 0.103483 -0.541215
v 1.403196 0.103483 0.541215
v -1.662434 0.103483 -0.000000
v -1.662434 -0.103483 -0.000000
v 1.283621 0.103483 -0.000000
v 1.283621 -0.103483 -0.000000
vt 0.241888 0.931165
vt 0.254100 0.899799
vt 0.265268 0.904365
vt 0.252592 0.934068
vt 0.265263 0.890461
vt 0.494479 0.890383
vt 0.494483 0.904287
vt 0.460534 0.951604
vt 0.452217 0.982586
vt 0.441822 0.980265
vt 0.448321 0.944203
vt 0.440627 0.993375
vt 0.246440 0.975670
vt 0.247635 0.962560
vt 0.444661 0.854041
vt 0.246743 0.854108
vt 0.452681 0.817679
vt 0.246731 0.817749
vt 0.502994 0.913861
vt 0.236428 0.960472
vn -0.891200 0.000000 -0.453600
vn 0.000000 0.000000 -1.000000
vn 0.976500 0.000000 -0.215700
vn 0.000000 0.000000 1.000000
vn 0.000000 -1.000000 0.000000
vn 0.000000 1.000000 0.000000
vn 0.589600 0.000000 0.807700
vn -1.000000 0.000000 0.000000
s off
f 9/1/1 6/2/1 2/3/1 10/4/1
f 6/5/2 7/6/2 3/7/2 2/3/2
f 11/8/3 8/9/3 4/10/3 12/11/3
f 8/12/4 5/13/4 1/14/4 4/10/4
f 10/4/5 2/3/5 3/7/5 12/11/5
f 11/15/6 7/6/6 6/5/6 9/16/6
f 8/17/6 11/15/6 9/16/6 5/18/6
f 1/14/5 10/4/5 12/11/5 4/10/5
f 7/19/7 11/8/7 12/11/7 3/7/7
f 5/20/8 9/1/8 10/4/8 1/14/8
