# Blender v2.73 (sub 0) OBJ File: 'barrel.blend'
# www.blender.org
o Cylinder.001
v -0.000000 1.066242 -1.379601
v -0.527949 1.066242 -1.274583
v -0.975525 1.066242 -0.975525
v -1.274583 1.066242 -0.527949
v -0.987354 -0.000000 -0.000000
v -1.379601 1.066242 -0.000000
v -0.912198 -0.000000 0.377844
v -1.274583 1.066242 0.527949
v -0.698166 -0.000000 0.698166
v -0.975525 1.066242 0.975525
v -0.377844 0.000000 0.912198
v -0.527949 1.066242 1.274583
v -0.000000 1.066242 1.379601
v 0.527949 1.066242 1.274583
v 0.975525 1.066242 0.975525
v 1.274583 1.066242 0.527949
v 1.379601 1.066242 0.000000
v 0.912198 0.000000 -0.377844
v 1.274583 1.066242 -0.527949
v 0.975525 1.066242 -0.975525
v -0.912199 4.410732 0.377844
v -0.000001 4.410732 0.000000
v 0.527949 1.066242 -1.274583
v -0.000001 3.344490 -1.379601
v -0.000000 2.205366 -1.557195
v -0.595914 2.205366 -1.438662
v -0.527950 3.344490 -1.274583
v -1.101105 2.205366 -1.101105
v -0.975526 3.344490 -0.975525
v -1.438663 2.205366 -0.595914
v -1.274584 3.344490 -0.527949
v -1.557196 2.205366 -0.000000
v -1.379602 3.344490 -0.000000
v -1.438663 2.205366 0.595914
v -1.274584 3.344490 0.527949
v -1.101105 2.205366 1.101105
v -0.975526 3.344490 0.975525
v -0.595914 2.205366 1.438662
v -0.527950 3.344490 1.274583
v -0.000000 2.205366 1.557195
v -0.000001 3.344490 1.379601
v 0.595914 2.205366 1.438662
v 0.527948 3.344490 1.274583
v 1.101104 2.205366 1.101105
v 0.975524 3.344490 0.975525
v 1.438662 2.205366 0.595914
v 1.274582 3.344490 0.527949
v 1.557195 2.205366 0.000000
v 1.379600 3.344490 0.000000
v 1.438662 2.205366 -0.595914
v 1.274582 3.344490 -0.527949
v 1.101104 2.205366 -1.101105
v 0.975524 3.344490 -0.975525
v 0.527948 3.344490 -1.274583
v 0.595914 2.205366 -1.438662
v 0.377843 4.410732 0.912198
v 0.912197 4.410732 -0.377844
v 0.698165 4.410732 -0.698166
v -0.698167 4.410732 -0.698166
v 0.987353 4.410732 0.000000
v -0.987355 4.410732 -0.000000
v 0.377843 4.410732 -0.912198
v 0.698166 0.000000 0.698166
v 0.377844 0.000000 0.912198
v 0.000000 0.000000 0.000000
v -0.912198 -0.000000 -0.377844
v -0.698166 -0.000000 -0.698166
v 0.987354 0.000000 0.000000
v 0.912198 0.000000 0.377844
v 0.698166 0.000000 -0.698166
v 0.000000 0.000000 -0.987354
v 0.377844 0.000000 -0.912198
v -0.000000 0.000000 0.987354
v -0.377844 0.000000 -0.912198
v 0.912197 4.410732 0.377844
v -0.912199 4.410732 -0.377844
v 0.698165 4.410732 0.698166
v -0.377845 4.410732 0.912198
v -0.000001 4.410732 0.987354
v -0.698167 4.410732 0.698166
v -0.000001 4.410732 -0.987354
v -0.377845 4.410732 -0.912198
vt 0.681009 0.145000
vt 0.681009 0.010364
vt 0.736248 0.010364
vt 0.736248 0.145000
vt 0.793123 0.010364
vt 0.793123 0.145000
vt 0.852525 0.010364
vt 0.852525 0.145000
vt 0.467783 0.423747
vt 0.467454 0.284370
vt 0.520017 0.284370
vt 0.520017 0.423747
vt 0.573260 0.284370
vt 0.573260 0.423747
vt 0.626819 0.284370
vt 0.626818 0.423747
vt 0.681009 0.284370
vt 0.681009 0.423747
vt 0.736248 0.284370
vt 0.736248 0.423747
vt 0.793123 0.284370
vt 0.793123 0.423747
vt 0.852525 0.284370
vt 0.852525 0.423747
vt 0.915606 0.284370
vt 0.915606 0.423747
vt 0.019279 0.423747
vt 0.019279 0.284370
vt 0.082365 0.284370
vt 0.082365 0.423747
vt 0.141773 0.284370
vt 0.141773 0.423747
vt 0.198652 0.284370
vt 0.198652 0.423747
vt 0.253895 0.284370
vt 0.253895 0.423747
vt 0.308088 0.284370
vt 0.308088 0.423747
vt 0.361650 0.284370
vt 0.361650 0.423747
vt 0.413627 0.423747
vt 0.412343 0.284370
vt 0.467126 0.145000
vt 0.520017 0.145000
vt 0.626819 0.145000
vt 0.308088 0.558363
vt 0.361650 0.558363
vt 0.082365 0.145000
vt 0.141773 0.145000
vt 0.412769 0.145000
vt 0.198652 0.145000
vt 0.253895 0.145000
vt 0.573260 0.145000
vt 0.019279 0.145000
vt 0.308088 0.145000
vt 0.361650 0.145000
vt 0.915606 0.145000
vt 0.417447 0.558363
vt 0.253895 0.558363
vt 0.141773 0.010364
vt 0.198652 0.010364
vt 0.466201 0.010364
vt 0.520017 0.010364
vt 0.082365 0.010364
vt 0.019279 0.010364
vt 0.915606 0.010364
vt 0.626819 0.010364
vt 0.573260 0.010364
vt 0.253895 0.010364
vt 0.308088 0.010364
vt 0.361650 0.010364
vt 0.414563 0.010364
vt 0.019279 0.558363
vt 0.082365 0.558363
vt 0.141773 0.558363
vt 0.198652 0.558363
vt 0.520017 0.558363
vt 0.573260 0.558363
vt 0.468717 0.558363
vt 0.626818 0.558363
vt 0.793123 0.558363
vt 0.852525 0.558363
vt 0.915606 0.558363
vt 0.681009 0.558363
vt 0.736248 0.558363
vt 0.323135 0.809190
vt 0.279033 0.809190
vt 0.301084 0.698331
vt 0.238287 0.604348
vt 0.279032 0.587471
vt 0.395066 0.761127
vt 0.363881 0.792313
vt 0.363881 0.604348
vt 0.395066 0.635533
vt 0.238287 0.792313
vt 0.323135 0.587471
vt 0.411943 0.676279
vt 0.190224 0.676279
vt 0.207102 0.635534
vt 0.411944 0.720382
vt 0.207102 0.761128
vt 0.190224 0.720382
vt 0.322443 0.587471
vt 0.363188 0.604348
vt 0.300391 0.698331
vt 0.237594 0.604348
vt 0.278340 0.587471
vt 0.237594 0.792313
vt 0.206409 0.761128
vt 0.411251 0.676279
vt 0.411251 0.720382
vt 0.206409 0.635534
vt 0.394373 0.761127
vt 0.189532 0.720382
vt 0.189532 0.676279
vt 0.394373 0.635533
vt 0.322443 0.809190
vt 0.278340 0.809190
vt 0.363188 0.792313
vn -0.968700 -0.247900 0.000000
vn -0.938500 -0.345300 -0.000000
vn -0.867100 -0.345300 0.359200
vn -0.895000 -0.247900 0.370700
vn -0.663600 -0.345300 0.663600
vn -0.685000 -0.247900 0.685000
vn -0.359200 -0.345300 0.867100
vn -0.370700 -0.247900 0.895000
vn 0.000000 0.247900 -0.968700
vn 0.000000 0.000000 -1.000000
vn -0.382700 0.000000 -0.923900
vn -0.370700 0.247900 -0.895000
vn -0.707100 0.000000 -0.707100
vn -0.685000 0.247900 -0.685000
vn -0.923900 0.000000 -0.382700
vn -0.895000 0.247900 -0.370700
vn -1.000000 0.000000 0.000000
vn -0.968700 0.247900 0.000000
vn -0.923900 0.000000 0.382700
vn -0.895000 0.247900 0.370700
vn -0.707100 0.000000 0.707100
vn -0.685000 0.247900 0.685000
vn -0.382700 0.000000 0.923900
vn -0.370700 0.247900 0.895000
vn 0.000000 0.000000 1.000000
vn 0.000000 0.247900 0.968700
vn 0.382700 0.000000 0.923900
vn 0.370700 0.247900 0.895000
vn 0.707100 0.000000 0.707100
vn 0.685000 0.247900 0.685000
vn 0.923900 0.000000 0.382700
vn 0.895000 0.247900 0.370700
vn 1.000000 0.000000 0.000000
vn 0.968700 0.247900 0.000000
vn 0.923900 0.000000 -0.382700
vn 0.895000 0.247900 -0.370700
vn 0.707100 0.000000 -0.707100
vn 0.685000 0.247900 -0.685000
vn 0.370700 0.247900 -0.895000
vn 0.382700 0.000000 -0.923900
vn 0.000000 -0.247900 -0.968700
vn -0.370700 -0.247900 -0.895000
vn -0.895000 -0.247900 -0.370700
vn 0.867100 0.345300 -0.359200
vn 0.663600 0.345300 -0.663600
vn 0.370700 -0.247900 0.895000
vn 0.685000 -0.247900 0.685000
vn 0.370700 -0.247900 -0.895000
vn 0.895000 -0.247900 0.370700
vn 0.968700 -0.247900 0.000000
vn -0.685000 -0.247900 -0.685000
vn 0.000000 -0.247900 0.968700
vn 0.895000 -0.247900 -0.370700
vn 0.685000 -0.247900 -0.685000
vn 0.359200 0.345300 -0.867100
vn 0.938500 0.345300 0.000000
vn 0.663600 -0.345300 0.663600
vn 0.867100 -0.345300 0.359200
vn 0.000000 -0.345300 -0.938500
vn -0.359200 -0.345300 -0.867100
vn 0.359200 -0.345300 0.867100
vn 0.000000 -0.345300 0.938500
vn -0.867100 -0.345300 -0.359200
vn -0.663600 -0.345300 -0.663600
vn 0.938500 -0.345300 -0.000000
vn 0.867100 -0.345300 -0.359200
vn 0.663600 -0.345300 -0.663600
vn 0.359200 -0.345300 -0.867100
vn -0.000000 0.345300 0.938500
vn 0.359200 0.345300 0.867100
vn 0.663600 0.345300 0.663600
vn 0.867100 0.345300 0.359200
vn -0.359200 0.345300 -0.867100
vn -0.663600 0.345300 -0.663600
vn 0.000000 0.345300 -0.938500
vn -0.867100 0.345300 -0.359200
vn -0.663600 0.345300 0.663600
vn -0.359200 0.345300 0.867100
vn -0.938500 0.345300 0.000000
vn -0.867100 0.345300 0.359200
vn 0.000000 -1.000000 -0.000000
vn 0.000000 1.000000 0.000000
s 1
f 6/1/1 5/2/2 7/3/3 8/4/4
f 8/4/4 7/3/3 9/5/5 10/6/6
f 10/6/6 9/5/5 11/7/7 12/8/8
f 24/9/9 25/10/10 26/11/11 27/12/12
f 27/12/12 26/11/11 28/13/13 29/14/14
f 29/14/14 28/13/13 30/15/15 31/16/16
f 31/16/16 30/15/15 32/17/17 33/18/18
f 33/18/18 32/17/17 34/19/19 35/20/20
f 35/20/20 34/19/19 36/21/21 37/22/22
f 37/22/22 36/21/21 38/23/23 39/24/24
f 39/24/24 38/23/23 40/25/25 41/26/26
f 41/27/26 40/28/25 42/29/27 43/30/28
f 43/30/28 42/29/27 44/31/29 45/32/30
f 45/32/30 44/31/29 46/33/31 47/34/32
f 47/34/32 46/33/31 48/35/33 49/36/34
f 49/36/34 48/35/33 50/37/35 51/38/36
f 51/38/36 50/37/35 52/39/37 53/40/38
f 54/41/39 55/42/40 25/10/10 24/9/9
f 53/40/38 52/39/37 55/42/40 54/41/39
f 25/10/10 1/43/41 2/44/42 26/11/11
f 30/15/15 4/45/43 6/1/1 32/17/17
f 57/46/44 51/38/36 53/40/38 58/47/45
f 42/29/27 14/48/46 15/49/47 44/31/29
f 1/43/41 25/10/10 55/42/40 23/50/48
f 36/21/21 10/6/6 12/8/8 38/23/23
f 46/33/31 16/51/49 17/52/50 48/35/33
f 28/13/13 3/53/51 4/45/43 30/15/15
f 40/28/25 13/54/52 14/48/46 42/29/27
f 50/37/35 19/55/53 20/56/54 52/39/37
f 34/19/19 8/4/4 10/6/6 36/21/21
f 44/31/29 15/49/47 16/51/49 46/33/31
f 26/11/11 2/44/42 3/53/51 28/13/13
f 38/23/23 12/8/8 13/57/52 40/25/25
f 48/35/33 17/52/50 19/55/53 50/37/35
f 32/17/17 6/1/1 8/4/4 34/19/19
f 52/39/37 20/56/54 23/50/48 55/42/40
f 58/47/45 53/40/38 54/41/39 62/58/55
f 60/59/56 49/36/34 51/38/36 57/46/44
f 15/49/47 63/60/57 69/61/58 16/51/49
f 1/43/41 71/62/59 74/63/60 2/44/42
f 14/48/46 64/64/61 63/60/57 15/49/47
f 13/54/52 73/65/62 64/64/61 14/48/46
f 12/8/8 11/7/7 73/66/62 13/57/52
f 4/45/43 66/67/63 5/2/2 6/1/1
f 3/53/51 67/68/64 66/67/63 4/45/43
f 2/44/42 74/63/60 67/68/64 3/53/51
f 16/51/49 69/61/58 68/69/65 17/52/50
f 17/52/50 68/69/65 18/70/66 19/55/53
f 19/55/53 18/70/66 70/71/67 20/56/54
f 71/62/59 1/43/41 23/50/48 72/72/68
f 20/56/54 70/71/67 72/72/68 23/50/48
f 79/73/69 41/27/26 43/30/28 56/74/70
f 77/75/71 45/32/30 47/34/32 75/76/72
f 82/77/73 27/12/12 29/14/14 59/78/74
f 81/79/75 24/9/9 27/12/12 82/77/73
f 56/74/70 43/30/28 45/32/30 77/75/71
f 59/78/74 29/14/14 31/16/16 76/80/76
f 75/76/72 47/34/32 49/36/34 60/59/56
f 80/81/77 37/22/22 39/24/24 78/82/78
f 78/82/78 39/24/24 41/26/26 79/83/69
f 61/84/79 33/18/18 35/20/20 21/85/80
f 21/85/80 35/20/20 37/22/22 80/81/77
f 62/58/55 54/41/39 24/9/9 81/79/75
f 76/80/76 31/16/16 33/18/18 61/84/79
s 2
f 63/86/81 64/87/81 65/88/81
f 66/89/81 67/90/81 65/88/81
f 68/91/81 69/92/81 65/88/81
f 71/93/81 72/94/81 65/88/81
f 64/87/81 73/95/81 65/88/81
f 67/90/81 74/96/81 65/88/81
f 69/92/81 63/86/81 65/88/81
f 74/96/81 71/93/81 65/88/81
f 72/94/81 70/97/81 65/88/81
f 7/98/81 5/99/81 65/88/81
f 70/97/81 18/100/81 65/88/81
f 11/101/81 9/102/81 65/88/81
f 5/99/81 66/89/81 65/88/81
f 18/100/81 68/91/81 65/88/81
f 9/102/81 7/98/81 65/88/81
f 73/95/81 11/101/81 65/88/81
s 3
f 78/103/82 79/104/82 22/105/82
f 21/106/82 80/107/82 22/105/82
f 81/108/82 82/109/82 22/105/82
f 77/110/82 75/111/82 22/105/82
f 80/107/82 78/103/82 22/105/82
f 61/112/82 21/106/82 22/105/82
f 75/111/82 60/113/82 22/105/82
f 59/114/82 76/115/82 22/105/82
f 56/116/82 77/110/82 22/105/82
f 58/117/82 62/118/82 22/105/82
f 60/113/82 57/119/82 22/105/82
f 76/115/82 61/112/82 22/105/82
f 82/109/82 59/114/82 22/105/82
f 79/104/82 56/116/82 22/105/82
f 62/118/82 81/108/82 22/105/82
f 57/119/82 58/117/82 22/105/82
