# This file uses centimeters as units for non-parametric coordinates.

mtllib Mod_Crate.mtl
g default
v -2.440232 1.205686 2.849909
v 2.184456 1.205686 2.849909
v -2.440232 5.516807 2.849909
v 2.184456 5.516807 2.849909
v -2.440232 6.073025 2.212975
v 2.184456 6.073025 2.212975
v -2.440232 6.073025 -2.001754
v 2.184456 6.073025 -2.001836
v -2.440232 5.516807 -2.641516
v 2.184456 5.516807 -2.641516
v -2.440232 1.205686 -2.641516
v 2.184456 1.205686 -2.641516
v -2.440232 0.639307 -2.001754
v 2.184456 0.639308 -2.001836
v -2.440232 0.639307 2.212974
v 2.184456 0.639307 2.212974
v 2.828664 1.205687 -2.001836
v 2.828664 1.205686 2.212974
v 2.828664 5.516807 -2.001836
v 2.828664 5.516807 2.212974
v -3.269447 1.205687 -2.000791
v -3.269447 1.205686 2.212975
v -3.269447 5.516808 -2.000791
v -3.269447 5.516807 2.212975
v -3.486399 0.147341 3.197361
v -2.440232 0.146382 3.197653
v -2.440232 1.205686 3.206164
v -3.496192 1.205686 3.207107
v 2.184456 0.146382 3.197653
v 2.184456 1.205686 3.206164
v 3.198227 0.147132 3.198227
v 3.207107 1.205686 3.207107
v -2.440232 5.516808 3.206164
v -3.496192 5.516808 3.207107
v 3.207107 5.516808 3.207107
v 2.184456 5.516808 3.206164
v -2.440232 6.563273 3.207107
v -3.495571 6.564370 3.205239
v 2.184456 6.563273 3.207107
v 3.198227 6.564370 3.204608
v -2.440232 6.558120 2.212975
v -3.497335 6.563273 2.212975
v 2.184456 6.558120 2.212975
v 3.207107 6.563273 2.212975
v -2.440232 6.562113 -2.001754
v -3.488050 6.563273 -2.001754
v 3.207107 6.563273 -2.001836
v 2.184456 6.562113 -2.001835
v -2.440232 6.563273 -3.008186
v -3.495794 6.564370 -2.996601
v 2.184456 6.563273 -3.008186
v 3.199048 6.564370 -3.008685
v -2.440232 5.516808 -3.001856
v -3.492552 5.516808 -3.000046
v 2.184456 5.516808 -3.001856
v 3.199538 5.516808 -3.008186
v -2.440232 1.205686 -3.001856
v -3.492552 1.205687 -3.000046
v 3.199538 1.205686 -3.008186
v 2.184456 1.205686 -3.001856
v -2.440232 0.149059 -3.008186
v -3.492828 0.148759 -3.000154
v 2.184456 0.149059 -3.008186
v 3.199048 0.148694 -3.008685
v -2.440232 0.148283 -2.001754
v -3.488164 0.149060 -2.001754
v 2.184456 0.148283 -2.001836
v 3.207107 0.149060 -2.001836
v -2.440232 0.148283 2.212974
v -3.488164 0.149059 2.212974
v 3.207107 0.149059 2.212974
v 2.184456 0.148283 2.212974
v 3.204104 1.205686 -2.001836
v 3.204104 1.205686 2.212974
v 3.204104 5.516807 -2.001836
v 3.204104 5.516808 2.212974
v -3.487619 1.205686 -2.001755
v -3.500000 1.205685 2.212975
v -3.487619 5.516808 -2.001755
v -3.500000 5.516808 2.212975
vt 0.000214 0.760408
vt 0.000250 0.733263
vt 0.000360 0.553749
vt 0.000397 0.521780
vt 0.018153 0.760457
vt 0.018190 0.733312
vt 0.018300 0.553799
vt 0.018337 0.521829
vt 0.153338 0.760604
vt 0.153375 0.733460
vt 0.153485 0.553946
vt 0.153522 0.521976
vt 0.178538 0.760653
vt 0.178575 0.733509
vt 0.178685 0.553995
vt 0.178722 0.522025
vt 0.199858 0.760702
vt 0.199894 0.733558
vt 0.200004 0.554044
vt 0.200041 0.522074
vt 0.333672 0.760850
vt 0.333709 0.733705
vt 0.333819 0.554191
vt 0.333856 0.522222
vt 0.356863 0.760899
vt 0.356899 0.733754
vt 0.357010 0.554241
vt 0.357046 0.522271
vt 0.378182 0.760948
vt 0.378219 0.733803
vt 0.378329 0.554290
vt 0.378366 0.522320
vt 0.510749 0.761095
vt 0.510786 0.733951
vt 0.510896 0.554437
vt 0.510933 0.522467
vt 0.535187 0.761144
vt 0.535224 0.734000
vt 0.535334 0.554486
vt 0.535371 0.522516
vt 0.554636 0.761194
vt 0.554672 0.734049
vt 0.554783 0.554535
vt 0.554819 0.522565
vt 0.689074 0.761341
vt 0.689111 0.734196
vt 0.689221 0.554682
vt 0.689257 0.522712
vt 0.713512 0.761390
vt 0.713549 0.734245
vt 0.713659 0.554732
vt 0.713696 0.522762
vt 0.000581 0.283151
vt 0.000544 0.314919
vt 0.000434 0.495608
vt 0.018520 0.283201
vt 0.018484 0.314968
vt 0.018374 0.495657
vt 0.153705 0.283348
vt 0.153668 0.315116
vt 0.153558 0.495804
vt 0.178905 0.283397
vt 0.178868 0.315165
vt 0.178758 0.495853
vt 0.000030 0.999036
vt 0.000067 0.973958
vt 0.000177 0.793009
vt 0.017970 0.999085
vt 0.018007 0.974008
vt 0.018117 0.793058
vt 0.153155 0.999232
vt 0.153191 0.974155
vt 0.153301 0.793205
vt 0.178355 0.999281
vt 0.178391 0.974204
vt 0.178502 0.793254
vt 0.018190 0.733312
vt 0.018300 0.553799
vt 0.153375 0.733460
vt 0.153485 0.553946
vt 0.199894 0.733558
vt 0.200004 0.554044
vt 0.333709 0.733705
vt 0.333819 0.554191
vt 0.378219 0.733803
vt 0.378329 0.554290
vt 0.510786 0.733951
vt 0.510896 0.554437
vt 0.554672 0.734049
vt 0.554783 0.554535
vt 0.689111 0.734196
vt 0.689221 0.554682
vt 0.018484 0.314968
vt 0.018374 0.495657
vt 0.153668 0.315116
vt 0.153558 0.495804
vt 0.018007 0.974008
vt 0.018117 0.793058
vt 0.153191 0.974155
vt 0.153301 0.793205
vn 0.000305 -0.008620 0.999963
vn 0.000057 -0.008143 0.999967
vn 0.000417 -0.004634 0.999989
vn 0.000778 -0.001685 0.999998
vn -0.000134 -0.008066 0.999968
vn -0.000468 -0.004642 0.999989
vn -0.000742 -0.008208 0.999966
vn -0.000886 -0.001606 0.999998
vn 0.000341 -0.000369 1.000000
vn 0.000633 0.000086 1.000000
vn 0.000000 0.000000 1.000000
vn 0.000000 0.000000 1.000000
vn 0.000000 0.000000 1.000000
vn 0.000000 0.000000 1.000000
vn -0.000595 0.000145 1.000000
vn -0.000315 -0.000345 1.000000
vn -0.000081 -0.000651 1.000000
vn -0.000438 0.000442 1.000000
vn 0.000138 -0.000603 1.000000
vn 0.000764 0.000746 0.999999
vn 0.002961 0.999991 -0.003149
vn 0.000550 0.999988 -0.004805
vn 0.001627 0.999996 -0.002481
vn 0.002992 0.999996 -0.000217
vn -0.000553 0.999988 -0.004819
vn -0.001654 0.999995 -0.002519
vn -0.003073 0.999990 -0.003161
vn -0.003084 0.999995 -0.000214
vn 0.001423 0.999999 0.000854
vn 0.002630 0.999996 0.000601
vn 0.000000 1.000000 0.000000
vn 0.000000 1.000000 0.000000
vn 0.000000 1.000000 0.000000
vn 0.000000 1.000000 0.000000
vn -0.002707 0.999996 0.000598
vn -0.001445 0.999999 0.000857
vn 0.000198 0.999999 0.001147
vn 0.001079 0.999999 0.001124
vn -0.000200 0.999999 0.001147
vn -0.001108 0.999999 0.001126
vn -0.006355 -0.001387 -0.999979
vn -0.001181 -0.005183 -0.999986
vn -0.001414 -0.002939 -0.999995
vn -0.002629 -0.000272 -0.999996
vn -0.000606 -0.005546 -0.999984
vn -0.003002 -0.003185 -0.999990
vn -0.003363 -0.003262 -0.999989
vn -0.005674 -0.000637 -0.999984
vn -0.001234 0.003100 -0.999995
vn -0.002302 0.000600 -0.999997
vn 0.000000 0.000000 -1.000000
vn 0.000000 0.000000 -1.000000
vn 0.000000 0.000000 -1.000000
vn 0.000000 0.000000 -1.000000
vn -0.005670 0.000636 -0.999984
vn -0.002989 0.003168 -0.999991
vn -0.000867 0.005444 -0.999985
vn -0.004676 0.003047 -0.999985
vn -0.000605 0.005494 -0.999985
vn -0.003364 0.003232 -0.999989
vn -0.000228 -1.000000 -0.000236
vn -0.000042 -1.000000 -0.000673
vn -0.000347 -1.000000 -0.000379
vn -0.000642 -1.000000 -0.000046
vn 0.000036 -1.000000 -0.000669
vn 0.000348 -1.000000 -0.000380
vn 0.000202 -1.000000 -0.000204
vn 0.000653 -1.000000 -0.000039
vn -0.000413 -0.999999 -0.001068
vn -0.000758 -1.000000 -0.000347
vn 0.000000 -1.000000 -0.000000
vn 0.000000 -1.000000 -0.000000
vn 0.000000 -1.000000 -0.000000
vn 0.000000 -1.000000 -0.000000
vn 0.000758 -1.000000 -0.000365
vn 0.000408 -0.999999 -0.001088
vn -0.000153 -0.999998 -0.001913
vn -0.000829 -0.999998 -0.001837
vn 0.000135 -0.999998 -0.001932
vn 0.000750 -0.999998 -0.001940
vn 0.999996 0.002524 -0.001209
vn 0.999980 0.001190 -0.006271
vn 0.999988 0.000234 -0.004878
vn 0.999995 0.001413 -0.002674
vn 0.999999 0.000995 -0.001006
vn 0.999998 0.001769 0.000565
vn 0.999992 -0.002791 0.002966
vn 0.999998 -0.000545 -0.001851
vn 0.999988 -0.000235 -0.004876
vn 0.999995 -0.001420 -0.002682
vn 1.000000 0.000000 0.000000
vn 1.000000 0.000000 0.000000
vn 1.000000 0.000000 0.000000
vn 1.000000 0.000000 0.000000
vn 0.999998 0.000548 -0.001855
vn 0.999999 -0.001000 -0.001014
vn 0.999980 -0.001201 -0.006272
vn 0.999996 -0.002548 -0.001210
vn 0.999998 -0.001786 0.000564
vn 0.999992 0.002810 0.002958
vn -0.999988 0.000389 0.004806
vn -0.999991 -0.004244 -0.000267
vn -0.999995 -0.002383 0.002018
vn -0.999988 0.000077 0.004915
vn -0.999980 -0.006274 -0.000655
vn -0.999993 -0.003526 0.001310
vn -0.999944 -0.010238 0.002808
vn -0.999991 -0.001999 0.003631
vn -0.999999 0.000294 0.001698
vn -0.999986 -0.000344 0.005218
vn -1.000000 0.000000 0.000000
vn -1.000000 0.000000 0.000000
vn -1.000000 0.000000 0.000000
vn -1.000000 0.000000 0.000000
vn -0.999993 0.000307 0.003631
vn -0.999999 0.000651 0.000822
vn -0.999999 0.000525 -0.000861
vn -0.999978 -0.001765 0.006359
vn -0.999998 0.001163 -0.001544
vn -0.999995 0.001571 0.002805
vn 0.000000 1.000000 0.000000
vn 0.000000 1.000000 0.000000
vn 0.000000 1.000000 0.000000
vn 0.000000 1.000000 0.000000
vn 1.000000 0.000000 -0.000001
vn 1.000000 0.000000 -0.000001
vn 1.000000 0.000000 -0.000001
vn 1.000000 0.000000 -0.000001
vn -1.000000 0.000000 0.000000
vn -1.000000 0.000000 0.000000
vn -1.000000 0.000000 0.000000
vn -1.000000 0.000000 0.000000
vn 0.000000 -1.000000 0.000001
vn 0.000000 -1.000000 0.000001
vn 0.000000 -1.000000 0.000001
vn 0.000000 -1.000000 0.000001
vn 0.000000 0.000001 -1.000000
vn 0.000000 0.000001 -1.000000
vn 0.000000 0.000001 -1.000000
vn 0.000000 0.000001 -1.000000
vn 1.000000 0.000000 -0.000000
vn 1.000000 0.000000 -0.000000
vn 1.000000 0.000000 -0.000000
vn 1.000000 0.000000 -0.000000
vn -1.000000 0.000000 0.000000
vn -1.000000 0.000000 0.000000
vn -1.000000 0.000000 0.000000
vn -1.000000 0.000000 0.000000
vn 0.000018 -0.000001 1.000000
vn 0.000018 -0.000001 1.000000
vn 0.000018 -0.000001 1.000000
vn 0.000018 -0.000001 1.000000
vn 0.000000 -1.000000 -0.000000
vn 0.000000 -1.000000 -0.000000
vn 0.000000 -1.000000 -0.000000
vn 0.000000 -1.000000 -0.000000
vn 1.000000 0.000000 0.000001
vn 1.000000 0.000000 0.000001
vn 1.000000 0.000000 0.000001
vn 1.000000 0.000000 0.000001
vn -1.000000 0.000000 0.000000
vn -1.000000 0.000000 0.000000
vn -1.000000 0.000000 0.000000
vn -1.000000 0.000000 0.000000
vn 0.000000 1.000000 -0.000001
vn 0.000000 1.000000 -0.000001
vn 0.000000 1.000000 -0.000001
vn 0.000000 1.000000 -0.000001
vn 0.000018 0.000000 1.000000
vn 0.000018 0.000000 1.000000
vn 0.000018 0.000000 1.000000
vn 0.000018 0.000000 1.000000
vn 1.000000 0.000000 -0.000000
vn 1.000000 0.000000 -0.000000
vn 1.000000 0.000000 -0.000000
vn 1.000000 0.000000 -0.000000
vn -1.000000 0.000000 0.000000
vn -1.000000 0.000000 0.000000
vn -1.000000 0.000000 0.000000
vn -1.000000 0.000000 0.000000
vn 0.000000 0.000000 -1.000000
vn 0.000000 0.000000 -1.000000
vn 0.000000 0.000000 -1.000000
vn 0.000000 0.000000 -1.000000
vn 0.000002 1.000000 0.000000
vn 0.000002 1.000000 0.000000
vn 0.000002 1.000000 0.000000
vn 0.000002 1.000000 0.000000
vn 0.000001 0.000000 -1.000000
vn 0.000001 0.000000 -1.000000
vn 0.000001 0.000000 -1.000000
vn 0.000001 0.000000 -1.000000
vn -0.000001 0.000000 1.000000
vn -0.000001 0.000000 1.000000
vn -0.000001 0.000000 1.000000
vn -0.000001 0.000000 1.000000
vn 0.000000 -1.000000 0.000000
vn 0.000000 -1.000000 0.000000
vn 0.000000 -1.000000 0.000000
vn 0.000000 -1.000000 0.000000
vn -0.000005 1.000000 0.000000
vn -0.000005 1.000000 0.000000
vn -0.000005 1.000000 0.000000
vn -0.000005 1.000000 0.000000
vn -0.004416 0.000000 0.999990
vn -0.004416 0.000000 0.999990
vn -0.004416 0.000000 0.999990
vn -0.004416 0.000000 0.999990
vn -0.000002 0.000000 -1.000000
vn -0.000002 0.000000 -1.000000
vn -0.000002 0.000000 -1.000000
vn -0.000002 0.000000 -1.000000
vn -0.000001 -1.000000 -0.000000
vn -0.000001 -1.000000 -0.000000
vn -0.000001 -1.000000 -0.000000
vn -0.000001 -1.000000 -0.000000
s 1
g Crate:pCube1
usemtl initialShadingGroup
f 25/1/1 26/2/2 27/6/3 28/5/4
f 27/77/3 26/2/2 29/3/5 30/78/6
f 29/3/5 31/4/7 32/8/8 30/78/6
f 27/77/3 33/79/9 34/9/10 28/5/4
s off
f 3/10/11 1/6/12 2/7/13 4/11/14
s 1
f 35/12/15 36/80/16 30/78/6 32/8/8
f 34/9/10 33/79/9 37/14/17 38/13/18
f 37/14/17 33/79/9 36/80/16 39/15/19
f 36/80/16 35/12/15 40/16/20 39/15/19
s 2
f 38/13/21 37/14/22 41/18/23 42/17/24
f 41/81/23 37/14/22 39/15/25 43/82/26
f 39/15/25 40/16/27 44/20/28 43/82/26
f 41/81/23 45/83/29 46/21/30 42/17/24
s off
f 8/23/31 7/22/32 5/18/33 6/19/34
s 2
f 47/24/35 48/84/36 43/82/26 44/20/28
f 46/21/30 45/83/29 49/26/37 50/25/38
f 49/26/37 45/83/29 48/84/36 51/27/39
f 48/84/36 47/24/35 52/28/40 51/27/39
s 3
f 50/25/41 49/26/42 53/30/43 54/29/44
f 53/85/43 49/26/42 51/27/45 55/86/46
f 51/27/45 52/28/47 56/32/48 55/86/46
f 53/85/43 57/87/49 58/33/50 54/29/44
s off
f 11/34/51 9/30/52 10/31/53 12/35/54
s 3
f 59/36/55 60/88/56 55/86/46 56/32/48
f 58/33/50 57/87/49 61/38/57 62/37/58
f 61/38/57 57/87/49 60/88/56 63/39/59
f 60/88/56 59/36/55 64/40/60 63/39/59
s 4
f 62/37/61 61/38/62 65/42/63 66/41/64
f 65/89/63 61/38/62 63/39/65 67/90/66
f 63/39/65 64/40/67 68/44/68 67/90/66
f 65/89/63 69/91/69 70/45/70 66/41/64
s off
f 16/47/71 15/46/72 13/42/73 14/43/74
s 4
f 71/48/75 72/92/76 67/90/66 68/44/68
f 70/45/70 69/91/69 26/50/77 25/49/78
f 29/51/79 26/50/77 69/91/69 72/92/76
f 72/92/76 71/48/75 31/52/80 29/51/79
s 5
f 68/54/81 64/53/82 59/56/83 73/57/84
f 73/93/84 74/94/85 71/55/86 68/54/81
f 31/4/87 71/55/86 74/94/85 32/8/88
f 73/93/84 59/56/83 56/59/89 75/95/90
s off
f 20/61/91 18/58/92 17/57/93 19/60/94
s 5
f 35/12/95 32/8/88 74/94/85 76/96/96
f 75/95/90 56/59/89 52/62/97 47/63/98
f 47/63/98 44/64/99 76/96/96 75/95/90
f 35/12/95 76/96/96 44/64/99 40/16/100
s 6
f 62/65/101 66/66/102 77/69/103 58/68/104
f 77/97/103 66/66/102 70/67/105 78/98/106
f 70/67/105 25/1/107 28/5/108 78/98/106
f 77/97/103 79/99/109 54/71/110 58/68/104
s off
f 23/72/111 21/69/112 22/70/113 24/73/114
s 6
f 28/5/108 34/9/115 80/100/116 78/98/106
f 54/71/110 79/99/109 46/75/117 50/74/118
f 42/76/119 46/75/117 79/99/109 80/100/116
f 80/100/116 34/9/115 38/13/120 42/76/119
s off
f 27/77/121 30/78/122 2/7/123 1/6/124
f 27/77/125 1/6/126 3/10/127 33/79/128
f 30/78/129 36/80/130 4/11/131 2/7/132
f 33/79/133 3/10/134 4/11/135 36/80/136
f 41/81/137 43/82/138 6/19/139 5/18/140
f 41/81/141 5/18/142 7/22/143 45/83/144
f 43/82/145 48/84/146 8/23/147 6/19/148
f 45/83/149 7/22/150 8/23/151 48/84/152
f 53/85/153 55/86/154 10/31/155 9/30/156
f 53/85/157 9/30/158 11/34/159 57/87/160
f 55/86/161 60/88/162 12/35/163 10/31/164
f 57/87/165 11/34/166 12/35/167 60/88/168
f 65/89/169 67/90/170 14/43/171 13/42/172
f 65/89/173 13/42/174 15/46/175 69/91/176
f 67/90/177 72/92/178 16/47/179 14/43/180
f 69/91/181 15/46/182 16/47/183 72/92/184
f 73/93/185 17/57/186 18/58/187 74/94/188
f 74/94/189 18/58/190 20/61/191 76/96/192
f 73/93/193 75/95/194 19/60/195 17/57/196
f 75/95/197 76/96/198 20/61/199 19/60/200
f 77/97/201 78/98/202 22/70/203 21/69/204
f 77/97/205 21/69/206 23/72/207 79/99/208
f 78/98/209 80/100/210 24/73/211 22/70/212
f 79/99/213 23/72/214 24/73/215 80/100/216
