# Blender v2.73 (sub 0) OBJ File: 'barrel.blend'
# www.blender.org
o Cube
v -2.962937 -0.103483 0.541215
v -2.962937 -0.103483 -0.541215
v 2.962937 -0.103483 -0.541215
v 2.962937 -0.103483 0.541215
v -2.962937 0.103483 0.541215
v -2.962937 0.103483 -0.541215
v 2.962937 0.103483 -0.541215
v 2.962937 0.103483 0.541215
vt 0.506510 0.897778
vt 0.506533 0.830824
vt 0.519335 0.830829
vt 0.519312 0.897783
vt 0.519284 0.977539
vt 0.885832 0.977666
vt 0.885828 0.990468
vt 0.519280 0.990341
vt 0.898685 0.830960
vt 0.898662 0.897914
vt 0.885860 0.897910
vt 0.885883 0.830955
vt 0.885855 0.910711
vt 0.519308 0.910585
vn -1.000000 0.000000 0.000000
vn 0.000000 0.000000 -1.000000
vn 1.000000 0.000000 0.000000
vn 0.000000 0.000000 1.000000
vn 0.000000 -1.000000 0.000000
vn 0.000000 1.000000 0.000000
s off
f 5/1/1 6/2/1 2/3/1 1/4/1
f 6/5/2 7/6/2 3/7/2 2/8/2
f 7/9/3 8/10/3 4/11/3 3/12/3
f 8/13/4 5/14/4 1/4/4 4/11/4
f 1/4/5 2/3/5 3/12/5 4/11/5
f 8/13/6 7/6/6 6/5/6 5/14/6
