# This file uses centimeters as units for non-parametric coordinates.

mtllib Wall1_ObjExport.mtl
g default
v 9.580656 24.120806 4.925522
v 10.383732 -0.090459 3.675772
v -1.585879 24.120806 4.925522
v -2.433116 -0.090459 3.675772
v 10.383732 2.423429 3.675772
v -2.433116 2.423429 3.675772
v 9.580656 4.185763 4.925522
v -1.585879 4.185763 4.925522
v 11.112519 -0.090459 2.222095
v 11.994778 -0.090459 2.222095
v 11.994778 24.120821 2.222095
v 11.112519 24.120821 2.222095
v -3.999999 -0.090459 2.222095
v -3.117741 -0.090459 2.222095
v -3.117741 24.120821 2.222095
v -3.999999 24.120821 2.222095
v 10.383734 24.120813 3.675772
v -2.433118 24.120813 3.675772
vt 0.902038 0.000000
vt 0.100723 0.000000
vt 0.100723 0.103831
vt 0.902038 0.103831
vt 0.055159 0.000000
vt 0.000000 0.000000
vt 0.000000 1.000000
vt 0.055159 1.000000
vt 0.849068 0.173487
vt 0.150932 0.173487
vt 0.150932 1.000000
vt 0.849068 1.000000
vt 1.000000 0.000000
vt 0.944841 0.000000
vt 0.944841 1.000000
vt 1.000000 1.000000
vt 0.902038 1.000000
vt 0.100723 1.000000
vn 0.000000 -0.000000 -1.000000
vn 0.000000 0.222072 -0.975030
vn 0.000000 0.224610 -0.974449
vn 0.000000 -0.000000 -1.000000
vn 0.000000 -0.000000 -1.000000
vn 0.000000 -0.000000 -1.000000
vn 0.000000 -0.000000 -1.000000
vn 0.000000 -0.000000 -1.000000
vn 0.000000 -0.000000 -1.000000
vn 0.000000 -0.000000 -1.000000
vn 0.000000 -0.000000 -1.000000
vn 0.000000 -0.000000 -1.000000
vn 0.000000 -0.000000 -1.000000
vn 0.000000 -0.000000 -1.000000
vn 0.000000 -0.000000 -1.000000
vn 0.000000 -0.000000 -1.000000
vn 0.000000 0.578458 -0.815712
vn 0.000000 0.578458 -0.815712
vn 0.887781 0.000000 -0.460266
vn 0.871900 0.000000 -0.489685
vn 0.827724 0.000000 -0.561136
vn 0.827724 0.000000 -0.561136
vn -0.882253 0.000000 -0.470776
vn -0.893948 0.000000 -0.448172
vn -0.893947 -0.000000 -0.448172
vn -0.841280 0.000000 -0.540599
vn -0.841280 0.000000 -0.540599
vn -0.871307 0.000000 -0.490738
vn 0.904689 -0.000000 -0.426073
vn 0.904689 0.000000 -0.426073
vn 0.904689 0.000000 -0.426073
vn -0.893947 0.000000 -0.448171
s 1
g Wall_1
usemtl lambert23SG
f 4/1/1 6/4/2 5/3/3 2/2/4
s off
f 9/5/5 12/8/6 11/7/7 10/6/8
f 8/9/9 3/12/10 1/11/11 7/10/12
f 13/13/13 16/16/14 15/15/15 14/14/16
s 1
f 6/4/2 8/9/17 7/10/18 5/3/3
s 2
f 6/4/19 18/17/20 3/12/21 8/9/22
s 3
f 5/3/23 9/5/24 2/2/25
f 5/3/23 7/10/26 1/11/27 17/18/28
s 2
f 4/1/29 14/14/30 6/4/19
f 6/4/19 14/14/30 15/15/31 18/17/20
s 3
f 17/18/28 12/8/32 9/5/24 5/3/23
