# Blender v2.75 (sub 0) OBJ File: ''
# www.blender.org
o Cube.001_Cube.002
v -27.763237 -1.000012 110.456589
v -27.763229 26.115158 110.456589
v -27.763237 26.115158 159.826721
v -27.763237 -1.000012 159.826721
v -168.493195 26.115181 138.206161
v -79.943268 26.115166 138.206177
v -79.943275 -1.000003 138.206177
v -168.493195 -0.999989 138.206161
v -69.496155 26.115166 110.456589
v -69.496155 26.115166 129.526871
v -42.504959 26.115158 129.526871
v -69.496162 -1.000004 129.526871
v -69.496155 -1.000004 110.456589
v -69.496155 26.115166 149.787552
v -69.496162 -1.000004 149.787552
v -42.504967 -1.000011 129.526871
v -42.504967 -1.000011 174.310059
v -42.504967 26.115158 174.310059
v 101.628075 26.115139 174.310074
v 83.380104 26.115139 159.826721
v 83.380104 -1.000030 159.826721
v 101.628075 -1.000031 174.310074
v 76.056053 -1.000028 34.406654
v 62.073494 -1.000027 48.786201
v 62.073509 -1.000027 -77.456505
v 76.056084 -1.000028 -54.303368
v 83.380119 26.115139 48.786201
v 83.380104 -1.000030 48.786201
v 101.628075 -1.000031 34.406654
v 101.628090 26.115139 34.406654
v 62.073509 26.115143 48.786201
v 76.056084 26.115143 34.406654
v 76.056084 26.115143 -54.303368
v 62.073509 26.115143 -77.456505
v 202.877655 -1.000047 -54.303368
v 202.877686 26.115122 -54.303368
v 178.711334 26.115124 -77.456505
v 178.711334 -1.000046 -77.456505
v 202.877686 -1.000047 -259.472351
v 202.877686 26.115122 -259.472351
v 178.711334 -1.000046 -233.041718
v 178.711334 26.115124 -233.041718
v -3.676857 26.115150 -259.472382
v 28.824577 26.115149 -233.041748
v -79.943268 26.115166 71.603127
v -69.496155 26.115166 97.157471
v -69.496155 26.115166 77.612648
v -69.496155 -1.000004 97.157471
v -69.496155 -1.000004 77.612648
v -69.496155 -1.000004 58.367241
v -69.496155 26.115166 58.367241
v 28.824577 -1.000021 -233.041748
v 28.824562 26.115149 -83.690758
v 28.824562 -1.000021 -83.690758
v -3.676872 -1.000018 -50.280159
v 29.046013 -1.000023 -50.280159
v -79.943268 -1.000003 71.603127
v -168.493195 26.115181 71.603119
v -168.493195 -0.999989 71.603119
v -175.209488 -0.999988 58.367233
v -175.209488 26.115181 58.367233
v -175.223511 26.115181 149.787552
v -175.223511 -0.999988 149.787552
v -3.676857 -1.000018 -259.472382
v -3.676872 26.115150 -50.280159
v -206.389160 -0.999984 126.708710
v -206.389145 26.115185 126.708710
v -206.375122 26.115185 82.233437
v -206.375122 -0.999984 82.233437
v 29.046013 26.115147 -50.280159
v 29.045998 -1.000023 34.940536
v 29.046013 26.115147 34.940536
v 47.910957 26.115145 -83.690758
v 47.910957 26.115145 52.776909
v -175.223511 26.115181 126.708710
v -175.223511 -0.999988 126.708710
v -168.493195 -0.999989 112.904640
v -168.493195 26.115181 112.904640
v 47.910957 -1.000024 -50.280159
v 47.910942 -1.000024 52.776909
v -175.209503 -0.999988 82.233444
v -175.209488 26.115181 82.233444
v -168.493195 -0.999989 96.904640
v -193.402588 26.115185 96.904633
v -193.402588 26.115185 112.904633
v 47.910957 -1.000024 -83.690758
v -168.493195 26.115181 96.904640
v -193.402588 -0.999985 112.904633
v -193.402588 -0.999985 96.904633
v -25.638390 -1.000012 52.776909
v -42.865448 -1.000011 34.940536
v -42.865448 26.115158 34.940536
v -25.638390 26.115158 52.776909
v -25.638397 -1.000012 97.152756
v -25.638390 26.115158 97.152756
v -42.865456 -1.000011 77.565384
v -42.865448 26.115158 77.565384
v -79.943268 26.115166 97.157471
v -79.943268 -1.000003 97.157471
v -79.943268 26.115166 110.456589
v -79.943275 -1.000003 110.456589
vn 1.000000 -0.000000 0.000000
vn 0.000000 0.000000 -1.000000
vn 0.000000 0.894400 -0.447200
vn 0.000000 1.000000 0.000000
vn -0.000000 -1.000000 -0.000000
vn -0.316200 -0.948700 0.000000
vn -0.000000 -0.894400 -0.447200
vn -0.316200 0.948700 0.000000
vn 0.000000 0.894400 0.447200
vn -0.000000 -0.894400 0.447200
vn -0.577400 -0.577400 0.577400
vn -0.577400 0.577400 0.577400
vn -0.577400 0.577400 -0.577400
vn -0.577400 -0.577400 -0.577400
vn 0.000000 0.000000 1.000000
vn -1.000000 0.000000 -0.000000
vn -1.000000 0.000000 -0.000300
vn 0.000100 -0.000000 1.000000
vn -0.001800 0.000000 -1.000000
s 1
f 1//1 2//1 3//1 4//1
s 2
f 5//2 6//2 7//2 8//2
s 3
f 9//3 10//4 11//4 2//4
f 12//5 7//6 13//7
f 16//5 1//5 4//5 17//5
f 12//5 13//7 1//5 16//5
f 2//4 11//4 18//4 3//4
f 3//4 18//4 19//4 20//4
f 17//5 4//5 21//5 22//5
f 23//5 24//5 25//5 26//5
f 29//5 28//5 24//5 23//5
f 22//5 21//5 28//5 29//5
f 27//4 30//4 32//4 31//4
f 31//4 32//4 33//4 34//4
f 34//4 33//4 36//4 37//4
f 26//5 25//5 38//5 35//5
f 35//5 38//5 41//5 39//5
f 6//8 10//4 9//3
f 6//8 14//4 10//4
f 42//4 40//4 43//4 44//4
f 15//5 7//6 12//5
f 20//4 19//4 30//4 27//4
f 45//8 46//9 47//4
f 57//6 48//10 99//11
f 55//5 54//5 56//5
f 8//5 7//6 15//5 63//5
f 73//4 70//4 72//4 74//4
f 49//5 57//6 50//5
f 62//4 14//4 6//8 5//4
f 60//5 59//5 83//5 81//5
f 84//4 68//4 67//4 85//4
f 64//5 52//5 54//5 55//5
f 87//4 82//4 68//4 84//4
f 75//4 78//4 85//4 67//4
f 81//5 83//5 89//5 69//5
f 69//5 89//5 88//5 66//5
f 8//5 63//5 76//5 77//5
f 77//5 76//5 66//5 88//5
f 62//4 5//4 78//4 75//4
f 58//4 61//4 82//4 87//4
f 37//4 36//4 40//4 42//4
f 56//5 79//5 80//5 71//5
f 71//5 80//5 90//5 91//5
f 44//4 43//4 65//4 53//4
f 74//4 72//4 92//4 93//4
f 91//5 90//5 94//5 96//5
f 56//5 54//5 86//5 79//5
f 96//5 94//5 48//10 49//5
f 95//4 97//4 47//4 46//9
f 48//10 46//9 98//12 99//11
f 45//8 98//12 46//9
f 45//8 47//4 51//4
f 45//8 51//4 61//4 58//4
f 48//10 57//6 49//5
f 45//8 57//6 99//11 98//12
f 50//5 57//6 59//5 60//5
f 53//4 65//4 70//4
f 53//4 70//4 73//4
f 39//5 41//5 52//5 64//5
f 93//4 92//4 97//4 95//4
f 7//6 6//8 100//13 101//14
f 13//7 101//14 100//13 9//3
f 9//3 100//13 6//8
f 7//6 101//14 13//7
s 4
f 14//1 15//1 12//1 10//1
s 5
f 10//15 12//15 16//15 11//15
s 6
f 11//16 16//16 17//16 18//16
s 7
f 13//2 9//2 2//2 1//2
s 8
f 4//2 3//2 20//2 21//2
s 9
f 18//15 17//15 22//15 19//15
s 10
f 21//16 20//16 27//16 28//16
s 11
f 19//1 22//1 29//1 30//1
s 12
f 28//15 27//15 31//15 24//15
s 13
f 30//2 29//2 23//2 32//2
s 14
f 32//1 23//1 26//1 33//1
s 15
f 33//15 26//15 35//15 36//15
s 16
f 24//16 31//16 34//16 25//16
s 17
f 25//2 34//2 37//2 38//2
s 18
f 36//1 35//1 39//1 40//1
s 19
f 47//1 49//1 50//1 51//1
s 20
f 52//1 44//1 53//1 54//1
s 21
f 57//15 45//15 58//15 59//15
s 22
f 51//2 50//2 60//2 61//2
s 23
f 14//15 62//15 63//15 15//15
s 24
f 43//16 64//16 55//16 65//16
s 25
f 40//2 39//2 64//2 43//2
s 26
f 66//17 67//17 68//17 69//17
s 27
f 41//15 42//15 44//15 52//15
s 28
f 70//16 56//16 71//16 72//16
s 29
f 38//16 37//16 42//16 41//16
s 30
f 63//16 62//16 75//16 76//16
s 31
f 5//1 8//1 77//1 78//1
s 32
f 79//1 73//1 74//1 80//1
f 86//1 73//1 79//1
s 33
f 61//16 60//16 81//16 82//16
s 34
f 54//2 53//2 73//2 86//2
s 35
f 76//15 75//15 67//15 66//15
s 36
f 78//2 77//2 88//2 85//2
s 37
f 82//2 81//2 69//2 68//2
s 38
f 83//15 87//15 84//15 89//15
s 39
f 88//1 89//1 84//1 85//1
s 40
f 59//1 58//1 87//1 83//1
s 41
f 72//2 71//2 91//2 92//2
s 42
f 80//15 74//15 93//15 90//15
s 43
f 56//15 70//15 65//15 55//15
s 44
f 94//18 95//18 46//18 48//18
s 45
f 92//16 91//16 96//16 97//16
s 46
f 90//1 93//1 95//1 94//1
s 47
f 97//19 96//19 49//19 47//19
